<svg width="498" height="110" viewBox="0 0 498 110" fill="none" xmlns="http://www.w3.org/2000/svg">
<g filter="url(#filter0_d_0_1)">
<path d="M120.768 68.96C120.384 68.96 119.968 68.8 119.52 68.48C119.072 68.224 118.688 67.744 118.368 67.04C117.6 65.504 116.576 63.2 115.296 60.128C114.016 57.056 112.64 53.6 111.168 49.76C109.76 45.856 108.32 41.952 106.848 38.048C105.44 34.08 104.192 30.464 103.104 27.2C101.888 30.72 100.544 34.464 99.072 38.432C97.6 42.336 96.128 46.208 94.656 50.048C93.184 53.824 91.808 57.248 90.528 60.32C89.312 63.328 88.32 65.696 87.552 67.424C87.104 68.384 86.336 68.864 85.248 68.864C84.608 68.864 84.064 68.64 83.616 68.192C83.232 67.808 82.944 67.392 82.752 66.944C82.112 65.536 81.248 63.424 80.16 60.608C79.072 57.728 77.888 54.528 76.608 51.008C75.328 47.424 74.08 43.84 72.864 40.256C71.648 36.608 70.528 33.28 69.504 30.272C68.544 27.2 67.808 24.768 67.296 22.976C66.912 21.632 66.656 20.704 66.528 20.192C66.4 19.68 66.336 19.328 66.336 19.136C66.336 18.496 66.56 17.952 67.008 17.504C67.52 16.992 68.096 16.736 68.736 16.736C69.952 16.736 70.72 17.312 71.04 18.464C71.744 20.96 72.672 24.064 73.824 27.776C74.976 31.424 76.224 35.264 77.568 39.296C78.976 43.328 80.352 47.2 81.696 50.912C83.04 54.624 84.224 57.792 85.248 60.416C86.4 57.728 87.68 54.592 89.088 51.008C90.496 47.424 91.936 43.712 93.408 39.872C94.88 35.968 96.256 32.192 97.536 28.544C98.88 24.832 99.968 21.568 100.8 18.752C101.12 17.6 101.888 17.024 103.104 17.024C104.256 17.024 105.152 17.984 105.792 19.904C106.624 22.464 107.648 25.536 108.864 29.12C110.144 32.704 111.488 36.448 112.896 40.352C114.304 44.192 115.68 47.904 117.024 51.488C118.432 55.008 119.648 58.048 120.672 60.608C121.76 57.92 122.944 54.784 124.224 51.2C125.568 47.552 126.912 43.776 128.256 39.872C129.6 35.904 130.88 32.064 132.096 28.352C133.312 24.64 134.336 21.344 135.168 18.464C135.488 17.312 136.256 16.736 137.472 16.736C138.048 16.736 138.592 16.992 139.104 17.504C139.616 17.952 139.872 18.496 139.872 19.136C139.872 19.392 139.712 20.064 139.392 21.152C138.688 23.648 137.76 26.592 136.608 29.984C135.52 33.312 134.336 36.832 133.056 40.544C131.84 44.192 130.592 47.776 129.312 51.296C128.032 54.816 126.848 58.016 125.76 60.896C124.672 63.712 123.776 65.92 123.072 67.52C122.624 68.48 121.856 68.96 120.768 68.96ZM185.524 68C184.436 68 183.7 67.488 183.316 66.464C182.676 64.736 181.908 62.816 181.012 60.704C180.116 58.592 179.156 56.384 178.132 54.08H151.06C150.164 56.384 149.3 58.592 148.468 60.704C147.7 62.752 146.996 64.64 146.356 66.368C146.164 66.88 145.844 67.296 145.396 67.616C144.948 67.872 144.468 68 143.956 68C143.38 68 142.836 67.776 142.324 67.328C141.876 66.816 141.652 66.208 141.652 65.504C141.652 65.312 141.684 65.056 141.748 64.736C141.876 64.352 142.164 63.616 142.612 62.528C143.7 59.648 144.98 56.352 146.452 52.64C147.988 48.928 149.62 45.056 151.348 41.024C153.076 36.992 154.836 32.928 156.628 28.832C158.42 24.736 160.148 20.864 161.812 17.216C162.26 16.256 163.028 15.776 164.116 15.776H164.5C165.652 15.776 166.42 16.224 166.804 17.12C168.532 20.832 170.356 24.832 172.276 29.12C174.26 33.408 176.18 37.664 178.036 41.888C179.892 46.048 181.588 49.952 183.124 53.6C184.66 57.184 185.908 60.16 186.868 62.528C187.38 63.68 187.668 64.448 187.732 64.832C187.86 65.216 187.924 65.472 187.924 65.6C187.924 66.24 187.668 66.816 187.156 67.328C186.708 67.776 186.164 68 185.524 68ZM176.116 49.28C174.26 44.992 172.308 40.608 170.26 36.128C168.212 31.648 166.228 27.392 164.308 23.36C162.516 27.456 160.628 31.744 158.644 36.224C156.724 40.64 154.868 44.992 153.076 49.28H176.116ZM232.475 68C231.771 68 231.163 67.712 230.651 67.136L215.003 48.896H202.139V65.6C202.139 66.24 201.915 66.816 201.467 67.328C201.019 67.776 200.443 68 199.739 68C199.099 68 198.523 67.776 198.011 67.328C197.563 66.816 197.339 66.24 197.339 65.6V19.04C197.339 18.336 197.563 17.76 198.011 17.312C198.523 16.864 199.099 16.64 199.739 16.64H213.851C217.627 16.64 220.859 17.344 223.547 18.752C226.299 20.16 228.411 22.08 229.883 24.512C231.419 26.88 232.187 29.632 232.187 32.768C232.187 36.224 231.227 39.36 229.307 42.176C227.451 44.992 224.539 46.944 220.571 48.032L234.299 64.064C234.683 64.448 234.875 64.96 234.875 65.6C234.875 66.176 234.651 66.72 234.203 67.232C233.755 67.744 233.179 68 232.475 68ZM202.139 21.44V44.096H213.851C218.267 44.096 221.627 43.008 223.931 40.832C226.235 38.592 227.387 35.904 227.387 32.768C227.387 29.376 226.107 26.656 223.547 24.608C221.051 22.496 217.819 21.44 213.851 21.44H202.139ZM246.877 68C246.237 68 245.661 67.776 245.149 67.328C244.701 66.816 244.477 66.24 244.477 65.6V19.04C244.477 18.4 244.669 17.856 245.053 17.408C245.501 16.896 246.013 16.64 246.589 16.64H273.469C274.173 16.64 274.749 16.864 275.197 17.312C275.645 17.76 275.869 18.336 275.869 19.04C275.869 19.68 275.645 20.256 275.197 20.768C274.749 21.216 274.173 21.44 273.469 21.44H249.277V38.144H269.341C270.045 38.144 270.621 38.368 271.069 38.816C271.517 39.264 271.741 39.84 271.741 40.544C271.741 41.184 271.517 41.76 271.069 42.272C270.621 42.72 270.045 42.944 269.341 42.944H249.277V63.2H273.661C274.365 63.2 274.941 63.424 275.389 63.872C275.837 64.32 276.061 64.896 276.061 65.6C276.061 66.24 275.837 66.816 275.389 67.328C274.941 67.776 274.365 68 273.661 68H246.877ZM288.858 68C288.218 68 287.642 67.776 287.13 67.328C286.682 66.816 286.458 66.24 286.458 65.6V19.04C286.458 18.336 286.682 17.76 287.13 17.312C287.642 16.864 288.218 16.64 288.858 16.64H316.218C316.922 16.64 317.498 16.864 317.946 17.312C318.394 17.76 318.618 18.336 318.618 19.04C318.618 19.68 318.394 20.256 317.946 20.768C317.498 21.216 316.922 21.44 316.218 21.44H291.258V39.968H311.322C312.026 39.968 312.602 40.192 313.05 40.64C313.498 41.088 313.722 41.664 313.722 42.368C313.722 43.008 313.498 43.584 313.05 44.096C312.602 44.544 312.026 44.768 311.322 44.768H291.258V65.6C291.258 66.24 291.034 66.816 290.586 67.328C290.138 67.776 289.562 68 288.858 68ZM329.621 68C328.981 68 328.405 67.776 327.893 67.328C327.445 66.816 327.221 66.24 327.221 65.6V19.04C327.221 18.336 327.445 17.76 327.893 17.312C328.405 16.864 328.981 16.64 329.621 16.64C330.325 16.64 330.901 16.864 331.349 17.312C331.797 17.76 332.021 18.336 332.021 19.04V63.2H355.637C356.341 63.2 356.917 63.424 357.365 63.872C357.813 64.32 358.037 64.896 358.037 65.6C358.037 66.24 357.813 66.816 357.365 67.328C356.917 67.776 356.341 68 355.637 68H329.621ZM387.05 15.776C391.594 15.776 395.722 16.896 399.434 19.136C403.21 21.376 406.186 24.512 408.362 28.544C410.602 32.512 411.722 37.12 411.722 42.368C411.722 47.36 410.73 51.872 408.746 55.904C406.826 59.872 404.01 63.04 400.298 65.408C396.65 67.712 392.234 68.864 387.05 68.864C382.186 68.864 377.866 67.712 374.09 65.408C370.314 63.04 367.338 59.872 365.162 55.904C363.05 51.936 361.994 47.52 361.994 42.656C361.994 37.28 363.05 32.576 365.162 28.544C367.274 24.512 370.186 21.376 373.898 19.136C377.674 16.896 382.058 15.776 387.05 15.776ZM387.05 20.576C383.018 20.576 379.466 21.536 376.394 23.456C373.386 25.312 371.018 27.904 369.29 31.232C367.626 34.496 366.794 38.304 366.794 42.656C366.794 46.56 367.626 50.144 369.29 53.408C371.018 56.672 373.418 59.264 376.49 61.184C379.562 63.104 383.082 64.064 387.05 64.064C391.274 64.064 394.858 63.104 397.802 61.184C400.81 59.264 403.082 56.672 404.618 53.408C406.154 50.08 406.922 46.4 406.922 42.368C406.922 38.144 406.026 34.4 404.234 31.136C402.506 27.872 400.138 25.312 397.13 23.456C394.122 21.536 390.762 20.576 387.05 20.576ZM472.105 68.96C471.721 68.96 471.305 68.8 470.857 68.48C470.409 68.224 470.025 67.744 469.705 67.04C468.937 65.504 467.913 63.2 466.633 60.128C465.353 57.056 463.977 53.6 462.505 49.76C461.097 45.856 459.657 41.952 458.185 38.048C456.777 34.08 455.529 30.464 454.441 27.2C453.225 30.72 451.881 34.464 450.409 38.432C448.937 42.336 447.465 46.208 445.993 50.048C444.521 53.824 443.145 57.248 441.865 60.32C440.649 63.328 439.657 65.696 438.889 67.424C438.441 68.384 437.673 68.864 436.585 68.864C435.945 68.864 435.401 68.64 434.953 68.192C434.569 67.808 434.281 67.392 434.089 66.944C433.449 65.536 432.585 63.424 431.497 60.608C430.409 57.728 429.225 54.528 427.945 51.008C426.665 47.424 425.417 43.84 424.201 40.256C422.985 36.608 421.865 33.28 420.841 30.272C419.881 27.2 419.145 24.768 418.633 22.976C418.249 21.632 417.993 20.704 417.865 20.192C417.737 19.68 417.673 19.328 417.673 19.136C417.673 18.496 417.897 17.952 418.345 17.504C418.857 16.992 419.433 16.736 420.073 16.736C421.289 16.736 422.057 17.312 422.377 18.464C423.081 20.96 424.009 24.064 425.161 27.776C426.313 31.424 427.561 35.264 428.905 39.296C430.313 43.328 431.689 47.2 433.033 50.912C434.377 54.624 435.561 57.792 436.585 60.416C437.737 57.728 439.017 54.592 440.425 51.008C441.833 47.424 443.273 43.712 444.745 39.872C446.217 35.968 447.593 32.192 448.873 28.544C450.217 24.832 451.305 21.568 452.137 18.752C452.457 17.6 453.225 17.024 454.441 17.024C455.593 17.024 456.489 17.984 457.129 19.904C457.961 22.464 458.985 25.536 460.201 29.12C461.481 32.704 462.825 36.448 464.233 40.352C465.641 44.192 467.017 47.904 468.361 51.488C469.769 55.008 470.985 58.048 472.009 60.608C473.097 57.92 474.281 54.784 475.561 51.2C476.905 47.552 478.249 43.776 479.593 39.872C480.937 35.904 482.217 32.064 483.433 28.352C484.649 24.64 485.673 21.344 486.505 18.464C486.825 17.312 487.593 16.736 488.809 16.736C489.385 16.736 489.929 16.992 490.441 17.504C490.953 17.952 491.209 18.496 491.209 19.136C491.209 19.392 491.049 20.064 490.729 21.152C490.025 23.648 489.097 26.592 487.945 29.984C486.857 33.312 485.673 36.832 484.393 40.544C483.177 44.192 481.929 47.776 480.649 51.296C479.369 54.816 478.185 58.016 477.097 60.896C476.009 63.712 475.113 65.92 474.409 67.52C473.961 68.48 473.193 68.96 472.105 68.96Z" fill="#303030"/>
<path d="M119.52 68.48L120.682 66.8525L120.6 66.7937L120.512 66.7435L119.52 68.48ZM118.368 67.04L120.189 66.2124L120.173 66.1787L120.157 66.1456L118.368 67.04ZM115.296 60.128L113.45 60.8972L113.45 60.8972L115.296 60.128ZM111.168 49.76L109.287 50.4385L109.293 50.4573L109.301 50.4759L111.168 49.76ZM106.848 38.048L104.963 38.7168L104.97 38.7353L104.977 38.7536L106.848 38.048ZM103.104 27.2L105.001 26.5675L103.138 20.9769L101.214 26.547L103.104 27.2ZM99.072 38.432L100.943 39.1376L100.947 39.1276L99.072 38.432ZM94.656 50.048L96.5194 50.7744L96.5235 50.7639L94.656 50.048ZM90.528 60.32L88.6818 59.5508L88.6778 59.5606L88.6738 59.5704L90.528 60.32ZM87.552 67.424L89.3644 68.2698L89.3721 68.2531L89.3796 68.2363L87.552 67.424ZM83.616 68.192L82.2018 69.6062L82.2018 69.6062L83.616 68.192ZM82.752 66.944L84.5903 66.1562L84.5817 66.1362L84.5727 66.1164L82.752 66.944ZM80.16 60.608L78.2891 61.3148L78.2917 61.3218L78.2944 61.3288L80.16 60.608ZM76.608 51.008L74.7245 51.6807L74.7284 51.6915L76.608 51.008ZM72.864 40.256L70.9666 40.8885L70.97 40.8986L72.864 40.256ZM69.504 30.272L67.595 30.8685L67.6026 30.8926L67.6107 30.9165L69.504 30.272ZM67.296 22.976L69.219 22.4266L69.219 22.4266L67.296 22.976ZM66.528 20.192L68.4683 19.7069L68.4683 19.7069L66.528 20.192ZM67.008 17.504L68.4222 18.9182L68.4222 18.9182L67.008 17.504ZM71.04 18.464L69.1129 18.9993L69.1151 19.0069L71.04 18.464ZM73.824 27.776L71.9138 28.3688L71.9168 28.3783L73.824 27.776ZM77.568 39.296L75.6706 39.9285L75.6751 39.9419L75.6798 39.9554L77.568 39.296ZM81.696 50.912L79.8155 51.5929L79.8155 51.5929L81.696 50.912ZM85.248 60.416L83.3848 61.1431L85.1613 65.6954L87.0863 61.2038L85.248 60.416ZM89.088 51.008L87.2265 50.2767L87.2265 50.2767L89.088 51.008ZM93.408 39.872L95.2755 40.5879L95.2794 40.5776L93.408 39.872ZM97.536 28.544L95.6555 27.8631L95.6521 27.8725L95.6488 27.8818L97.536 28.544ZM100.8 18.752L102.718 19.3187L102.723 19.303L102.727 19.2873L100.8 18.752ZM105.792 19.904L107.694 19.2858L107.692 19.2787L107.689 19.2715L105.792 19.904ZM108.864 29.12L106.97 29.7626L106.975 29.7777L106.981 29.7927L108.864 29.12ZM112.896 40.352L111.015 41.0305L111.018 41.0405L112.896 40.352ZM117.024 51.488L115.151 52.1902L115.159 52.2106L115.167 52.2308L117.024 51.488ZM120.672 60.608L118.815 61.3508L120.661 65.9657L122.526 61.3584L120.672 60.608ZM124.224 51.2L122.347 50.5086L122.344 50.5179L122.341 50.5273L124.224 51.2ZM128.256 39.872L130.147 40.523L130.15 40.5136L128.256 39.872ZM135.168 18.464L137.089 19.0191L137.092 19.0092L137.095 18.9993L135.168 18.464ZM139.104 17.504L137.69 18.9182L137.737 18.9653L137.787 19.0092L139.104 17.504ZM139.392 21.152L137.473 20.5877L137.47 20.5984L137.467 20.6091L139.392 21.152ZM136.608 29.984L134.714 29.3408L134.711 29.3517L134.707 29.3625L136.608 29.984ZM133.056 40.544L131.165 39.892L131.162 39.9018L131.159 39.9115L133.056 40.544ZM129.312 51.296L131.192 51.9795L131.192 51.9795L129.312 51.296ZM125.76 60.896L127.626 61.6168L127.628 61.6098L127.631 61.6028L125.76 60.896ZM123.072 67.52L124.884 68.3658L124.894 68.3457L124.903 68.3255L123.072 67.52ZM120.768 68.96V66.96C120.858 66.96 120.901 66.9791 120.886 66.9733C120.867 66.9662 120.8 66.9364 120.682 66.8525L119.52 68.48L118.358 70.1075C119.003 70.5687 119.822 70.96 120.768 70.96V68.96ZM119.52 68.48L120.512 66.7435C120.545 66.762 120.522 66.7587 120.458 66.6786C120.392 66.5961 120.297 66.4505 120.189 66.2124L118.368 67.04L116.547 67.8676C116.959 68.7735 117.574 69.6715 118.528 70.2165L119.52 68.48ZM118.368 67.04L120.157 66.1456C119.42 64.6727 118.418 62.4198 117.142 59.3588L115.296 60.128L113.45 60.8972C114.734 63.9802 115.78 66.3353 116.579 67.9344L118.368 67.04ZM115.296 60.128L117.142 59.3588C115.871 56.308 114.502 52.8702 113.035 49.0441L111.168 49.76L109.301 50.4759C110.778 54.3298 112.161 57.804 113.45 60.8972L115.296 60.128ZM111.168 49.76L113.049 49.0815C111.638 45.1684 110.195 41.2553 108.719 37.3424L106.848 38.048L104.977 38.7536C106.445 42.6487 107.882 46.5436 109.287 50.4385L111.168 49.76ZM106.848 38.048L108.733 37.3792C107.328 33.4207 106.085 29.8171 105.001 26.5675L103.104 27.2L101.207 27.8325C102.299 31.1109 103.552 34.7393 104.963 38.7168L106.848 38.048ZM103.104 27.2L101.214 26.547C100.003 30.0509 98.6643 33.7807 97.1969 37.7364L99.072 38.432L100.947 39.1276C102.424 35.1473 103.773 31.3891 104.994 27.853L103.104 27.2ZM99.072 38.432L97.2006 37.7264C95.7299 41.627 94.2592 45.4956 92.7885 49.3321L94.656 50.048L96.5235 50.7639C97.9968 46.9204 99.4701 43.045 100.943 39.1376L99.072 38.432ZM94.656 50.048L92.7926 49.3216C91.325 53.0862 89.9548 56.4956 88.6818 59.5508L90.528 60.32L92.3742 61.0892C93.6612 58.0004 95.043 54.5618 96.5194 50.7744L94.656 50.048ZM90.528 60.32L88.6738 59.5704C87.4612 62.5699 86.4789 64.914 85.7244 66.6117L87.552 67.424L89.3796 68.2363C90.1611 66.478 91.1628 64.0861 92.3822 61.0696L90.528 60.32ZM87.552 67.424L85.7396 66.5782C85.6507 66.7687 85.5839 66.8056 85.58 66.808C85.5727 66.8125 85.4932 66.864 85.248 66.864V68.864V70.864C86.0908 70.864 86.9393 70.6755 87.7 70.2C88.4641 69.7224 89.0053 69.0393 89.3644 68.2698L87.552 67.424ZM85.248 68.864V66.864C85.1661 66.864 85.1315 66.8507 85.1215 66.8466C85.1119 66.8427 85.082 66.8296 85.0302 66.7778L83.616 68.192L82.2018 69.6062C83.0291 70.4335 84.0836 70.864 85.248 70.864V68.864ZM83.616 68.192L85.0302 66.7778C84.8056 66.5532 84.6712 66.345 84.5903 66.1562L82.752 66.944L80.9137 67.7318C81.2168 68.439 81.6584 69.0628 82.2018 69.6062L83.616 68.192ZM82.752 66.944L84.5727 66.1164C83.9574 64.7626 83.1101 62.6942 82.0256 59.8872L80.16 60.608L78.2944 61.3288C79.3859 64.1538 80.2666 66.3094 80.9313 67.7716L82.752 66.944ZM80.16 60.608L82.0309 59.9012C80.9464 57.0304 79.7653 53.8383 78.4876 50.3245L76.608 51.008L74.7284 51.6915C76.0107 55.2177 77.1976 58.4256 78.2891 61.3148L80.16 60.608ZM76.608 51.008L78.4915 50.3353C77.215 46.7613 75.9705 43.1873 74.758 39.6134L72.864 40.256L70.97 40.8986C72.1895 44.4927 73.441 48.0867 74.7245 51.6807L76.608 51.008ZM72.864 40.256L74.7614 39.6235C73.5443 35.9723 72.4229 32.6402 71.3973 29.6275L69.504 30.272L67.6107 30.9165C68.6331 33.9198 69.7517 37.2437 70.9666 40.8885L72.864 40.256ZM69.504 30.272L71.413 29.6754C70.4549 26.6096 69.7245 24.1955 69.219 22.4266L67.296 22.976L65.373 23.5254C65.8915 25.3405 66.6331 27.7904 67.595 30.8685L69.504 30.272ZM67.296 22.976L69.219 22.4266C68.8344 21.0802 68.5871 20.1823 68.4683 19.7069L66.528 20.192L64.5877 20.6771C64.7249 21.2257 64.9896 22.1837 65.373 23.5254L67.296 22.976ZM66.528 20.192L68.4683 19.7069C68.4104 19.4753 68.3733 19.3047 68.3517 19.1862C68.3411 19.1277 68.3362 19.0925 68.3343 19.0763C68.3319 19.0561 68.336 19.0808 68.336 19.136H66.336H64.336C64.336 19.6097 64.4661 20.1907 64.5877 20.6771L66.528 20.192ZM66.336 19.136H68.336C68.336 19.0541 68.3493 19.0195 68.3534 19.0095C68.3573 18.9999 68.3704 18.97 68.4222 18.9182L67.008 17.504L65.5938 16.0898C64.7665 16.9171 64.336 17.9716 64.336 19.136H66.336ZM67.008 17.504L68.4222 18.9182C68.6128 18.7276 68.6978 18.736 68.736 18.736V16.736V14.736C67.4942 14.736 66.4272 15.2564 65.5938 16.0898L67.008 17.504ZM68.736 16.736V18.736C69.0279 18.736 69.0691 18.8018 69.024 18.768C69.0084 18.7563 69.0093 18.7511 69.0235 18.7736C69.0401 18.7999 69.0763 18.8674 69.113 18.9993L71.04 18.464L72.967 17.9287C72.7184 17.0337 72.2405 16.1803 71.424 15.568C70.6109 14.9581 69.6601 14.736 68.736 14.736V16.736ZM71.04 18.464L69.1151 19.0069C69.8255 21.5256 70.759 24.6475 71.9139 28.3688L73.824 27.776L75.7341 27.1832C74.585 23.4805 73.6625 20.3944 72.9649 17.9211L71.04 18.464ZM73.824 27.776L71.9168 28.3783C73.0723 32.0374 74.3236 35.8875 75.6706 39.9285L77.568 39.296L79.4654 38.6635C78.1244 34.6405 76.8797 30.8106 75.7312 27.1737L73.824 27.776ZM77.568 39.296L75.6798 39.9554C77.0901 43.994 78.4687 47.8732 79.8155 51.5929L81.696 50.912L83.5765 50.2311C82.2353 46.5268 80.8619 42.662 79.4562 38.6366L77.568 39.296ZM81.696 50.912L79.8155 51.5929C81.163 55.3147 82.353 58.4991 83.3848 61.1431L85.248 60.416L87.1112 59.6889C86.095 57.0849 84.917 53.9333 83.5765 50.2311L81.696 50.912ZM85.248 60.416L87.0863 61.2038C88.2484 58.4923 89.5362 55.3367 90.9495 51.7393L89.088 51.008L87.2265 50.2767C85.8238 53.8473 84.5516 56.9637 83.4097 59.6282L85.248 60.416ZM89.088 51.008L90.9495 51.7393C92.3597 48.1498 93.8017 44.4327 95.2755 40.5879L93.408 39.872L91.5405 39.1561C90.0704 42.9913 88.6324 46.6982 87.2265 50.2767L89.088 51.008ZM93.408 39.872L95.2794 40.5776C96.7564 36.6603 98.1377 32.8698 99.4232 29.2062L97.536 28.544L95.6488 27.8818C94.3743 31.5142 93.0036 35.2757 91.5366 39.1664L93.408 39.872ZM97.536 28.544L99.4165 29.2249C100.77 25.4871 101.872 22.1836 102.718 19.3187L100.8 18.752L98.882 18.1853C98.0644 20.9524 96.9901 24.1769 95.6555 27.8631L97.536 28.544ZM100.8 18.752L102.727 19.2873C102.764 19.1554 102.8 19.0879 102.816 19.0616C102.831 19.0391 102.832 19.0443 102.816 19.056C102.771 19.0898 102.812 19.024 103.104 19.024V17.024V15.024C102.18 15.024 101.229 15.2462 100.416 15.856C99.5995 16.4683 99.1216 17.3217 98.873 18.2167L100.8 18.752ZM103.104 17.024V19.024C103.104 19.024 103.086 19.0218 103.071 19.0149C103.062 19.0107 103.1 19.0255 103.178 19.1086C103.353 19.296 103.621 19.7161 103.895 20.5365L105.792 19.904L107.689 19.2715C107.006 17.2225 105.668 15.024 103.104 15.024V17.024ZM105.792 19.904L103.89 20.5222C104.725 23.0928 105.752 26.1734 106.97 29.7626L108.864 29.12L110.758 28.4774C109.544 24.8986 108.523 21.8351 107.694 19.2858L105.792 19.904ZM108.864 29.12L106.981 29.7927C108.261 33.3788 109.606 37.1248 111.015 41.0305L112.896 40.352L114.777 39.6735C113.37 35.7712 112.027 32.0292 110.747 28.4473L108.864 29.12ZM112.896 40.352L111.018 41.0405C112.428 44.8848 113.806 48.6014 115.151 52.1902L117.024 51.488L118.897 50.7858C117.554 47.2066 116.18 43.4992 114.774 39.6635L112.896 40.352ZM117.024 51.488L115.167 52.2308C116.575 55.7508 117.791 58.7908 118.815 61.3508L120.672 60.608L122.529 59.8652C121.505 57.3052 120.289 54.2652 118.881 50.7452L117.024 51.488ZM120.672 60.608L122.526 61.3584C123.627 58.6382 124.821 55.4752 126.107 51.8727L124.224 51.2L122.341 50.5273C121.067 54.0928 119.893 57.2018 118.818 59.8576L120.672 60.608ZM124.224 51.2L126.101 51.8914C127.45 48.2292 128.799 44.4397 130.147 40.523L128.256 39.872L126.365 39.221C125.025 43.1123 123.686 46.8748 122.347 50.5086L124.224 51.2ZM128.256 39.872L130.15 40.5136C131.496 36.5397 132.778 32.6934 133.997 28.9746L132.096 28.352L130.195 27.7294C128.982 31.4346 127.704 35.2683 126.362 39.2304L128.256 39.872ZM132.096 28.352L133.997 28.9746C135.218 25.2465 136.249 21.9273 137.089 19.0191L135.168 18.464L133.247 17.9089C132.423 20.7607 131.406 24.0335 130.195 27.7294L132.096 28.352ZM135.168 18.464L137.095 18.9993C137.132 18.8674 137.168 18.7999 137.184 18.7736C137.199 18.7511 137.2 18.7563 137.184 18.768C137.139 18.8018 137.18 18.736 137.472 18.736V16.736V14.736C136.548 14.736 135.597 14.9581 134.784 15.568C133.968 16.1803 133.49 17.0337 133.241 17.9287L135.168 18.464ZM137.472 16.736V18.736C137.453 18.736 137.443 18.7294 137.46 18.7376C137.486 18.7495 137.565 18.7931 137.69 18.9182L139.104 17.504L140.518 16.0898C139.733 15.3044 138.707 14.736 137.472 14.736V16.736ZM139.104 17.504L137.787 19.0092C137.863 19.0754 137.874 19.1079 137.87 19.0996C137.869 19.0975 137.869 19.0956 137.869 19.0967C137.869 19.0982 137.872 19.1101 137.872 19.136H139.872H141.872C141.872 17.8793 141.336 16.7995 140.421 15.9988L139.104 17.504ZM139.872 19.136H137.872C137.872 19.0284 137.885 18.9859 137.871 19.0662C137.861 19.1266 137.841 19.2247 137.806 19.3688C137.738 19.6563 137.629 20.0589 137.473 20.5877L139.392 21.152L141.311 21.7163C141.475 21.1571 141.606 20.6797 141.698 20.2952C141.773 19.9804 141.872 19.5314 141.872 19.136H139.872ZM139.392 21.152L137.467 20.6091C136.775 23.0615 135.859 25.9705 134.714 29.3408L136.608 29.984L138.502 30.6272C139.661 27.2135 140.601 24.2345 141.317 21.6949L139.392 21.152ZM136.608 29.984L134.707 29.3625C133.623 32.6792 132.442 36.189 131.165 39.892L133.056 40.544L134.947 41.196C136.23 37.475 137.417 33.9448 138.509 30.6055L136.608 29.984ZM133.056 40.544L131.159 39.9115C129.948 43.5429 128.706 47.1099 127.432 50.6125L129.312 51.296L131.192 51.9795C132.478 48.4421 133.732 44.8411 134.953 41.1765L133.056 40.544ZM129.312 51.296L127.432 50.6125C126.155 54.1263 124.974 57.3184 123.889 60.1892L125.76 60.896L127.631 61.6028C128.722 58.7136 129.909 55.5057 131.192 51.9795L129.312 51.296ZM125.76 60.896L123.894 60.1752C122.811 62.9799 121.927 65.1554 121.241 66.7145L123.072 67.52L124.903 68.3255C125.625 66.6846 126.533 64.4441 127.626 61.6168L125.76 60.896ZM123.072 67.52L121.26 66.6742C121.171 66.8647 121.104 66.9016 121.1 66.904C121.093 66.9085 121.013 66.96 120.768 66.96V68.96V70.96C121.611 70.96 122.459 70.7715 123.22 70.296C123.984 69.8184 124.525 69.1353 124.884 68.3658L123.072 67.52ZM183.316 66.464L181.44 67.1586L181.443 67.1662L183.316 66.464ZM181.012 60.704L182.853 59.9229L182.853 59.9229L181.012 60.704ZM178.132 54.08L179.959 53.2677L179.431 52.08H178.132V54.08ZM151.06 54.08V52.08H149.692L149.196 53.3551L151.06 54.08ZM148.468 60.704L146.607 59.971L146.601 59.9863L146.595 60.0018L148.468 60.704ZM146.356 66.368L148.228 67.0703L148.231 67.0626L146.356 66.368ZM145.396 67.616L146.388 69.3525L146.476 69.3023L146.558 69.2435L145.396 67.616ZM142.324 67.328L140.819 68.645L140.906 68.7454L141.007 68.8332L142.324 67.328ZM141.748 64.736L139.85 64.1035L139.811 64.2217L139.787 64.3438L141.748 64.736ZM142.612 62.528L144.461 63.2895L144.472 63.2623L144.483 63.2348L142.612 62.528ZM146.452 52.64L144.604 51.8753L144.598 51.889L144.593 51.9027L146.452 52.64ZM151.348 41.024L149.509 40.2362L149.509 40.2362L151.348 41.024ZM161.812 17.216L159.999 16.3702L159.996 16.3781L159.992 16.386L161.812 17.216ZM166.804 17.12L164.965 17.9078L164.978 17.9361L164.991 17.9641L166.804 17.12ZM172.276 29.12L170.45 29.9373L170.455 29.9486L170.461 29.9598L172.276 29.12ZM178.036 41.888L176.205 42.6926L176.209 42.7029L178.036 41.888ZM183.124 53.6L181.28 54.3761L181.285 54.3878L183.124 53.6ZM186.868 62.528L185.014 63.2794L185.027 63.3101L185.04 63.3403L186.868 62.528ZM187.732 64.832L185.759 65.1608L185.785 65.3156L185.834 65.4645L187.732 64.832ZM187.156 67.328L185.742 65.9138L185.742 65.9138L187.156 67.328ZM176.116 49.28V51.28H179.161L177.951 48.4856L176.116 49.28ZM164.308 23.36L166.113 22.5001L164.231 18.5463L162.475 22.5584L164.308 23.36ZM158.644 36.224L156.815 35.4141L156.81 35.4265L158.644 36.224ZM153.076 49.28L151.23 48.5088L150.072 51.28H153.076V49.28ZM185.524 68V66C185.408 66 185.343 65.9864 185.314 65.9784C185.289 65.9713 185.288 65.9676 185.298 65.9742C185.33 65.9968 185.27 65.9783 185.188 65.7618L183.316 66.464L181.443 67.1662C181.746 67.9737 182.245 68.7232 183.014 69.2578C183.783 69.7929 184.66 70 185.524 70V68ZM183.316 66.464L185.191 65.7694C184.538 64.0063 183.758 62.0569 182.853 59.9229L181.012 60.704L179.171 61.4851C180.057 63.5751 180.813 65.4657 181.44 67.1586L183.316 66.464ZM181.012 60.704L182.853 59.9229C181.952 57.7995 180.988 55.5811 179.959 53.2677L178.132 54.08L176.304 54.8923C177.324 57.1869 178.279 59.3845 179.171 61.4851L181.012 60.704ZM178.132 54.08V52.08H151.06V54.08V56.08H178.132V54.08ZM151.06 54.08L149.196 53.3551C148.301 55.6566 147.438 57.8619 146.607 59.971L148.468 60.704L150.329 61.437C151.162 59.3221 152.027 57.1114 152.924 54.8049L151.06 54.08ZM148.468 60.704L146.595 60.0018C145.826 62.0518 145.121 63.9424 144.48 65.6734L146.356 66.368L148.231 67.0626C148.87 65.3376 149.573 63.4522 150.34 61.4062L148.468 60.704ZM146.356 66.368L144.483 65.6658C144.432 65.8029 144.36 65.8978 144.233 65.9885L145.396 67.616L146.558 69.2435C147.327 68.6942 147.896 67.9571 148.228 67.0702L146.356 66.368ZM145.396 67.616L144.403 65.8795C144.255 65.9642 144.117 66 143.956 66V68V70C144.819 70 145.64 69.7798 146.388 69.3525L145.396 67.616ZM143.956 68V66C143.949 66 143.858 66.0128 143.641 65.8228L142.324 67.328L141.007 68.8332C141.814 69.5392 142.81 70 143.956 70V68ZM142.324 67.328L143.829 66.011C143.712 65.8772 143.652 65.742 143.652 65.504H141.652H139.652C139.652 66.674 140.04 67.7548 140.819 68.645L142.324 67.328ZM141.652 65.504H143.652C143.652 65.5135 143.651 65.4878 143.66 65.4161C143.669 65.347 143.684 65.2523 143.709 65.1282L141.748 64.736L139.787 64.3438C139.712 64.7168 139.652 65.1205 139.652 65.504H141.652ZM141.748 64.736L143.645 65.3685C143.748 65.0602 144.009 64.3866 144.461 63.2895L142.612 62.528L140.762 61.7665C140.318 62.8454 140.004 63.6438 139.85 64.1035L141.748 64.736ZM142.612 62.528L144.483 63.2348C145.566 60.3674 146.842 57.0819 148.311 53.3773L146.452 52.64L144.593 51.9027C143.118 55.6221 141.834 58.9286 140.741 61.8212L142.612 62.528ZM146.452 52.64L148.3 53.4047C149.832 49.7011 151.461 45.8368 153.186 41.8118L151.348 41.024L149.509 40.2362C147.778 44.2752 146.143 48.1549 144.604 51.8753L146.452 52.64ZM151.348 41.024L153.186 41.8118C154.912 37.7845 156.67 33.7251 158.46 29.6336L156.628 28.832L154.795 28.0304C153.001 32.1309 151.239 36.1995 149.509 40.2362L151.348 41.024ZM156.628 28.832L158.46 29.6336C160.248 25.5461 161.972 21.6836 163.631 18.046L161.812 17.216L159.992 16.386C158.323 20.0444 156.591 23.9259 154.795 28.0304L156.628 28.832ZM161.812 17.216L163.624 18.0618C163.713 17.8713 163.78 17.8344 163.784 17.832C163.791 17.8274 163.871 17.776 164.116 17.776V15.776V13.776C163.273 13.776 162.424 13.9645 161.664 14.44C160.9 14.9176 160.358 15.6007 159.999 16.3702L161.812 17.216ZM164.116 15.776V17.776H164.5V15.776V13.776H164.116V15.776ZM164.5 15.776V17.776C164.824 17.776 164.932 17.8393 164.932 17.8396C164.934 17.8405 164.932 17.8398 164.929 17.8374C164.927 17.8351 164.925 17.8334 164.925 17.8336C164.925 17.8339 164.929 17.8384 164.936 17.8493C164.943 17.8604 164.953 17.8791 164.965 17.9078L166.804 17.12L168.642 16.3322C168.298 15.5301 167.738 14.8455 166.947 14.3844C166.18 13.9367 165.328 13.776 164.5 13.776V15.776ZM166.804 17.12L164.991 17.9641C166.714 21.666 168.534 25.657 170.45 29.9373L172.276 29.12L174.101 28.3027C172.178 24.007 170.35 19.998 168.617 16.2759L166.804 17.12ZM172.276 29.12L170.461 29.9598C172.439 34.2364 174.354 38.4806 176.205 42.6925L178.036 41.888L179.867 41.0835C178.005 36.8474 176.08 32.5796 174.091 28.2802L172.276 29.12ZM178.036 41.888L176.209 42.7029C178.06 46.8519 179.751 50.7429 181.28 54.3761L183.124 53.6L184.967 52.8239C183.425 49.1611 181.723 45.2441 179.862 41.0731L178.036 41.888ZM183.124 53.6L181.285 54.3878C182.819 57.9653 184.061 60.9282 185.014 63.2794L186.868 62.528L188.721 61.7766C187.754 59.3918 186.501 56.4027 184.962 52.8122L183.124 53.6ZM186.868 62.528L185.04 63.3403C185.288 63.897 185.47 64.3374 185.595 64.6702C185.732 65.0355 185.761 65.1713 185.759 65.1608L187.732 64.832L189.705 64.5032C189.591 63.8217 189.183 62.814 188.695 61.7157L186.868 62.528ZM187.732 64.832L185.834 65.4645C185.861 65.5451 185.883 65.6136 185.9 65.6707C185.917 65.7284 185.929 65.7698 185.935 65.7971C185.943 65.8262 185.942 65.828 185.939 65.8088C185.937 65.7983 185.934 65.7763 185.931 65.745C185.928 65.7148 185.924 65.6647 185.924 65.6H187.924H189.924C189.924 65.2777 189.855 64.9831 189.816 64.8269C189.767 64.6305 189.702 64.4175 189.629 64.1995L187.732 64.832ZM187.924 65.6H185.924C185.924 65.6382 185.932 65.7232 185.742 65.9138L187.156 67.328L188.57 68.7422C189.403 67.9088 189.924 66.8418 189.924 65.6H187.924ZM187.156 67.328L185.742 65.9138C185.69 65.9656 185.66 65.9787 185.65 65.9826C185.64 65.9867 185.606 66 185.524 66V68V70C186.688 70 187.743 69.5695 188.57 68.7422L187.156 67.328ZM176.116 49.28L177.951 48.4856C176.09 44.1845 174.132 39.7881 172.079 35.2965L170.26 36.128L168.441 36.9595C170.483 41.4279 172.43 45.7995 174.28 50.0744L176.116 49.28ZM170.26 36.128L172.079 35.2965C170.027 30.8079 168.038 26.5424 166.113 22.5001L164.308 23.36L162.502 24.2199C164.417 28.2416 166.397 32.488 168.441 36.9595L170.26 36.128ZM164.308 23.36L162.475 22.5584C160.685 26.6514 158.798 30.9366 156.815 35.4141L158.644 36.224L160.472 37.0338C162.458 32.5514 164.347 28.2606 166.14 24.1616L164.308 23.36ZM158.644 36.224L156.81 35.4265C154.886 39.851 153.026 44.2117 151.23 48.5088L153.076 49.28L154.921 50.0512C156.709 45.7723 158.562 41.429 160.478 37.0214L158.644 36.224ZM153.076 49.28V51.28H176.116V49.28V47.28H153.076V49.28ZM230.651 67.136L229.133 68.4382L229.145 68.4516L229.156 68.4647L230.651 67.136ZM215.003 48.896L216.521 47.5938L215.923 46.896H215.003V48.896ZM202.139 48.896V46.896H200.139V48.896H202.139ZM201.467 67.328L202.881 68.7422L202.929 68.6951L202.972 68.645L201.467 67.328ZM198.011 67.328L196.506 68.645L196.594 68.7454L196.694 68.8332L198.011 67.328ZM198.011 17.312L196.694 15.8068L196.644 15.8507L196.597 15.8978L198.011 17.312ZM223.547 18.752L222.619 20.5237L222.628 20.5281L222.636 20.5325L223.547 18.752ZM229.883 24.512L228.172 25.5476L228.188 25.5743L228.205 25.6004L229.883 24.512ZM229.307 42.176L227.655 41.0493L227.646 41.0623L227.637 41.0754L229.307 42.176ZM220.571 48.032L220.042 46.1032L217.001 46.9372L219.052 49.3328L220.571 48.032ZM234.299 64.064L232.78 65.3648L232.83 65.4236L232.885 65.4782L234.299 64.064ZM202.139 21.44V19.44H200.139V21.44H202.139ZM202.139 44.096H200.139V46.096H202.139V44.096ZM223.931 40.832L225.305 42.286L225.315 42.2761L225.325 42.266L223.931 40.832ZM223.547 24.608L222.255 26.1348L222.276 26.1525L222.298 26.1697L223.547 24.608ZM232.475 68V66C232.401 66 232.319 66.0016 232.146 65.8073L230.651 67.136L229.156 68.4647C230.008 69.4224 231.142 70 232.475 70V68ZM230.651 67.136L232.169 65.8338L216.521 47.5938L215.003 48.896L213.485 50.1982L229.133 68.4382L230.651 67.136ZM215.003 48.896V46.896H202.139V48.896V50.896H215.003V48.896ZM202.139 48.896H200.139V65.6H202.139H204.139V48.896H202.139ZM202.139 65.6H200.139C200.139 65.7234 200.113 65.8386 199.962 66.011L201.467 67.328L202.972 68.645C203.718 67.7934 204.139 66.7566 204.139 65.6H202.139ZM201.467 67.328L200.053 65.9138C200.023 65.9434 199.977 66 199.739 66V68V70C200.909 70 202.015 69.6086 202.881 68.7422L201.467 67.328ZM199.739 68V66C199.616 66 199.501 65.9737 199.328 65.8228L198.011 67.328L196.694 68.8332C197.546 69.5783 198.583 70 199.739 70V68ZM198.011 67.328L199.516 66.011C199.366 65.8386 199.339 65.7234 199.339 65.6H197.339H195.339C195.339 66.7566 195.761 67.7934 196.506 68.645L198.011 67.328ZM197.339 65.6H199.339V19.04H197.339H195.339V65.6H197.339ZM197.339 19.04H199.339C199.339 18.8018 199.396 18.7558 199.425 18.7262L198.011 17.312L196.597 15.8978C195.731 16.7642 195.339 17.8702 195.339 19.04H197.339ZM198.011 17.312L199.328 18.8172C199.501 18.6663 199.616 18.64 199.739 18.64V16.64V14.64C198.583 14.64 197.546 15.0617 196.694 15.8068L198.011 17.312ZM199.739 16.64V18.64H213.851V16.64V14.64H199.739V16.64ZM213.851 16.64V18.64C217.382 18.64 220.279 19.2979 222.619 20.5237L223.547 18.752L224.475 16.9803C221.439 15.3901 217.873 14.64 213.851 14.64V16.64ZM223.547 18.752L222.636 20.5325C225.088 21.7866 226.909 23.461 228.172 25.5476L229.883 24.512L231.594 23.4764C229.913 20.699 227.511 18.5334 224.458 16.9715L223.547 18.752ZM229.883 24.512L228.205 25.6004C229.508 27.6089 230.187 29.9739 230.187 32.768H232.187H234.187C234.187 29.2901 233.33 26.1511 231.561 23.4236L229.883 24.512ZM232.187 32.768H230.187C230.187 35.8281 229.345 38.5704 227.655 41.0493L229.307 42.176L230.96 43.3027C233.11 40.1496 234.187 36.6199 234.187 32.768H232.187ZM229.307 42.176L227.637 41.0754C226.104 43.4016 223.65 45.1141 220.042 46.1032L220.571 48.032L221.1 49.9608C225.429 48.7739 228.798 46.5824 230.977 43.2766L229.307 42.176ZM220.571 48.032L219.052 49.3328L232.78 65.3648L234.299 64.064L235.818 62.7632L222.09 46.7312L220.571 48.032ZM234.299 64.064L232.885 65.4782C232.882 65.4752 232.876 65.468 232.869 65.4575C232.862 65.447 232.859 65.4395 232.859 65.4382C232.857 65.435 232.875 65.4797 232.875 65.6H234.875H236.875C236.875 64.5315 236.539 63.4753 235.713 62.6498L234.299 64.064ZM234.875 65.6H232.875C232.875 65.6064 232.888 65.6979 232.698 65.915L234.203 67.232L235.708 68.549C236.414 67.7421 236.875 66.7456 236.875 65.6H234.875ZM234.203 67.232L232.698 65.915C232.65 65.9701 232.625 65.9794 232.623 65.9804C232.619 65.9821 232.58 66 232.475 66V68V70C233.733 70 234.866 69.512 235.708 68.549L234.203 67.232ZM202.139 21.44H200.139V44.096H202.139H204.139V21.44H202.139ZM202.139 44.096V46.096H213.851V44.096V42.096H202.139V44.096ZM213.851 44.096V46.096C218.575 46.096 222.504 44.9306 225.305 42.286L223.931 40.832L222.558 39.378C220.75 41.0854 217.959 42.096 213.851 42.096V44.096ZM223.931 40.832L225.325 42.266C228.006 39.6599 229.387 36.459 229.387 32.768H227.387H225.387C225.387 35.349 224.465 37.5241 222.537 39.398L223.931 40.832ZM227.387 32.768H229.387C229.387 28.7929 227.85 25.4888 224.797 23.0463L223.547 24.608L222.298 26.1697C224.365 27.8232 225.387 29.9591 225.387 32.768H227.387ZM223.547 24.608L224.839 23.0812C221.909 20.602 218.187 19.44 213.851 19.44V21.44V23.44C217.451 23.44 220.193 24.39 222.255 26.1348L223.547 24.608ZM213.851 21.44V19.44H202.139V21.44V23.44H213.851V21.44ZM245.149 67.328L243.644 68.645L243.731 68.7454L243.832 68.8332L245.149 67.328ZM245.053 17.408L243.548 16.091L243.541 16.0987L243.534 16.1064L245.053 17.408ZM275.197 17.312L273.783 18.7262L273.783 18.7262L275.197 17.312ZM275.197 20.768L276.611 22.1822L276.658 22.1351L276.702 22.085L275.197 20.768ZM249.277 21.44V19.44H247.277V21.44H249.277ZM249.277 38.144H247.277V40.144H249.277V38.144ZM271.069 42.272L272.483 43.6862L272.53 43.6391L272.574 43.589L271.069 42.272ZM249.277 42.944V40.944H247.277V42.944H249.277ZM249.277 63.2H247.277V65.2H249.277V63.2ZM275.389 67.328L276.803 68.7422L276.85 68.6951L276.894 68.645L275.389 67.328ZM246.877 68V66C246.753 66 246.638 65.9737 246.466 65.8228L245.149 67.328L243.832 68.8332C244.683 69.5783 245.72 70 246.877 70V68ZM245.149 67.328L246.654 66.011C246.503 65.8386 246.477 65.7234 246.477 65.6H244.477H242.477C242.477 66.7566 242.898 67.7934 243.644 68.645L245.149 67.328ZM244.477 65.6H246.477V19.04H244.477H242.477V65.6H244.477ZM244.477 19.04H246.477C246.477 18.8338 246.525 18.7633 246.571 18.7096L245.053 17.408L243.534 16.1064C242.812 16.9487 242.477 17.9661 242.477 19.04H244.477ZM245.053 17.408L246.558 18.725C246.643 18.6283 246.683 18.613 246.667 18.6209C246.66 18.6246 246.646 18.6304 246.627 18.6348C246.608 18.6392 246.594 18.64 246.589 18.64V16.64V14.64C245.33 14.64 244.3 15.2314 243.548 16.091L245.053 17.408ZM246.589 16.64V18.64H273.469V16.64V14.64H246.589V16.64ZM273.469 16.64V18.64C273.707 18.64 273.753 18.6966 273.783 18.7262L275.197 17.312L276.611 15.8978C275.745 15.0314 274.639 14.64 273.469 14.64V16.64ZM275.197 17.312L273.783 18.7262C273.812 18.7558 273.869 18.8018 273.869 19.04H275.869H277.869C277.869 17.8702 277.477 16.7642 276.611 15.8978L275.197 17.312ZM275.869 19.04H273.869C273.869 19.1634 273.842 19.2786 273.692 19.451L275.197 20.768L276.702 22.085C277.447 21.2334 277.869 20.1966 277.869 19.04H275.869ZM275.197 20.768L273.783 19.3538C273.753 19.3834 273.707 19.44 273.469 19.44V21.44V23.44C274.639 23.44 275.745 23.0486 276.611 22.1822L275.197 20.768ZM273.469 21.44V19.44H249.277V21.44V23.44H273.469V21.44ZM249.277 21.44H247.277V38.144H249.277H251.277V21.44H249.277ZM249.277 38.144V40.144H269.341V38.144V36.144H249.277V38.144ZM269.341 38.144V40.144C269.579 40.144 269.625 40.2006 269.655 40.2302L271.069 38.816L272.483 37.4018C271.617 36.5354 270.511 36.144 269.341 36.144V38.144ZM271.069 38.816L269.655 40.2302C269.684 40.2598 269.741 40.3058 269.741 40.544H271.741H273.741C273.741 39.3742 273.349 38.2682 272.483 37.4018L271.069 38.816ZM271.741 40.544H269.741C269.741 40.6674 269.714 40.7826 269.564 40.955L271.069 42.272L272.574 43.589C273.319 42.7374 273.741 41.7006 273.741 40.544H271.741ZM271.069 42.272L269.655 40.8578C269.625 40.8874 269.579 40.944 269.341 40.944V42.944V44.944C270.511 44.944 271.617 44.5526 272.483 43.6862L271.069 42.272ZM269.341 42.944V40.944H249.277V42.944V44.944H269.341V42.944ZM249.277 42.944H247.277V63.2H249.277H251.277V42.944H249.277ZM249.277 63.2V65.2H273.661V63.2V61.2H249.277V63.2ZM273.661 63.2V65.2C273.899 65.2 273.945 65.2566 273.975 65.2862L275.389 63.872L276.803 62.4578C275.937 61.5914 274.831 61.2 273.661 61.2V63.2ZM275.389 63.872L273.975 65.2862C274.004 65.3158 274.061 65.3618 274.061 65.6H276.061H278.061C278.061 64.4302 277.669 63.3242 276.803 62.4578L275.389 63.872ZM276.061 65.6H274.061C274.061 65.7234 274.034 65.8386 273.884 66.011L275.389 67.328L276.894 68.645C277.639 67.7934 278.061 66.7566 278.061 65.6H276.061ZM275.389 67.328L273.975 65.9138C273.945 65.9434 273.899 66 273.661 66V68V70C274.831 70 275.937 69.6086 276.803 68.7422L275.389 67.328ZM273.661 68V66H246.877V68V70H273.661V68ZM287.13 67.328L285.625 68.645L285.713 68.7454L285.813 68.8332L287.13 67.328ZM287.13 17.312L285.813 15.8068L285.763 15.8507L285.716 15.8978L287.13 17.312ZM317.946 17.312L316.532 18.7262L316.532 18.7262L317.946 17.312ZM317.946 20.768L319.36 22.1822L319.407 22.1351L319.451 22.085L317.946 20.768ZM291.258 21.44V19.44H289.258V21.44H291.258ZM291.258 39.968H289.258V41.968H291.258V39.968ZM313.05 44.096L314.464 45.5102L314.511 45.4631L314.555 45.413L313.05 44.096ZM291.258 44.768V42.768H289.258V44.768H291.258ZM290.586 67.328L292 68.7422L292.047 68.6951L292.091 68.645L290.586 67.328ZM288.858 68V66C288.735 66 288.619 65.9737 288.447 65.8228L287.13 67.328L285.813 68.8332C286.665 69.5783 287.701 70 288.858 70V68ZM287.13 67.328L288.635 66.011C288.484 65.8386 288.458 65.7234 288.458 65.6H286.458H284.458C284.458 66.7566 284.88 67.7934 285.625 68.645L287.13 67.328ZM286.458 65.6H288.458V19.04H286.458H284.458V65.6H286.458ZM286.458 19.04H288.458C288.458 18.8018 288.515 18.7558 288.544 18.7262L287.13 17.312L285.716 15.8978C284.849 16.7642 284.458 17.8702 284.458 19.04H286.458ZM287.13 17.312L288.447 18.8172C288.619 18.6663 288.735 18.64 288.858 18.64V16.64V14.64C287.701 14.64 286.665 15.0617 285.813 15.8068L287.13 17.312ZM288.858 16.64V18.64H316.218V16.64V14.64H288.858V16.64ZM316.218 16.64V18.64C316.456 18.64 316.502 18.6966 316.532 18.7262L317.946 17.312L319.36 15.8978C318.494 15.0314 317.388 14.64 316.218 14.64V16.64ZM317.946 17.312L316.532 18.7262C316.561 18.7558 316.618 18.8018 316.618 19.04H318.618H320.618C320.618 17.8702 320.227 16.7642 319.36 15.8978L317.946 17.312ZM318.618 19.04H316.618C316.618 19.1634 316.592 19.2786 316.441 19.451L317.946 20.768L319.451 22.085C320.196 21.2334 320.618 20.1966 320.618 19.04H318.618ZM317.946 20.768L316.532 19.3538C316.502 19.3834 316.456 19.44 316.218 19.44V21.44V23.44C317.388 23.44 318.494 23.0486 319.36 22.1822L317.946 20.768ZM316.218 21.44V19.44H291.258V21.44V23.44H316.218V21.44ZM291.258 21.44H289.258V39.968H291.258H293.258V21.44H291.258ZM291.258 39.968V41.968H311.322V39.968V37.968H291.258V39.968ZM311.322 39.968V41.968C311.56 41.968 311.606 42.0246 311.636 42.0542L313.05 40.64L314.464 39.2258C313.598 38.3594 312.492 37.968 311.322 37.968V39.968ZM313.05 40.64L311.636 42.0542C311.665 42.0838 311.722 42.1298 311.722 42.368H313.722H315.722C315.722 41.1982 315.331 40.0922 314.464 39.2258L313.05 40.64ZM313.722 42.368H311.722C311.722 42.4914 311.696 42.6066 311.545 42.779L313.05 44.096L314.555 45.413C315.3 44.5614 315.722 43.5246 315.722 42.368H313.722ZM313.05 44.096L311.636 42.6818C311.606 42.7114 311.56 42.768 311.322 42.768V44.768V46.768C312.492 46.768 313.598 46.3766 314.464 45.5102L313.05 44.096ZM311.322 44.768V42.768H291.258V44.768V46.768H311.322V44.768ZM291.258 44.768H289.258V65.6H291.258H293.258V44.768H291.258ZM291.258 65.6H289.258C289.258 65.7234 289.232 65.8386 289.081 66.011L290.586 67.328L292.091 68.645C292.836 67.7934 293.258 66.7566 293.258 65.6H291.258ZM290.586 67.328L289.172 65.9138C289.142 65.9434 289.096 66 288.858 66V68V70C290.028 70 291.134 69.6086 292 68.7422L290.586 67.328ZM327.893 67.328L326.387 68.645L326.475 68.7454L326.575 68.8332L327.893 67.328ZM327.893 17.312L326.575 15.8068L326.525 15.8507L326.478 15.8978L327.893 17.312ZM331.349 17.312L329.934 18.7262L329.934 18.7262L331.349 17.312ZM332.021 63.2H330.021V65.2H332.021V63.2ZM357.365 67.328L358.779 68.7422L358.826 68.6951L358.87 68.645L357.365 67.328ZM329.621 68V66C329.497 66 329.382 65.9737 329.21 65.8228L327.893 67.328L326.575 68.8332C327.427 69.5783 328.464 70 329.621 70V68ZM327.893 67.328L329.398 66.011C329.247 65.8386 329.221 65.7234 329.221 65.6H327.221H325.221C325.221 66.7566 325.642 67.7934 326.387 68.645L327.893 67.328ZM327.221 65.6H329.221V19.04H327.221H325.221V65.6H327.221ZM327.221 19.04H329.221C329.221 18.8018 329.277 18.7558 329.307 18.7262L327.893 17.312L326.478 15.8978C325.612 16.7642 325.221 17.8702 325.221 19.04H327.221ZM327.893 17.312L329.21 18.8172C329.382 18.6663 329.497 18.64 329.621 18.64V16.64V14.64C328.464 14.64 327.427 15.0617 326.575 15.8068L327.893 17.312ZM329.621 16.64V18.64C329.859 18.64 329.905 18.6966 329.934 18.7262L331.349 17.312L332.763 15.8978C331.896 15.0314 330.79 14.64 329.621 14.64V16.64ZM331.349 17.312L329.934 18.7262C329.964 18.7558 330.021 18.8018 330.021 19.04H332.021H334.021C334.021 17.8702 333.629 16.7642 332.763 15.8978L331.349 17.312ZM332.021 19.04H330.021V63.2H332.021H334.021V19.04H332.021ZM332.021 63.2V65.2H355.637V63.2V61.2H332.021V63.2ZM355.637 63.2V65.2C355.875 65.2 355.921 65.2566 355.95 65.2862L357.365 63.872L358.779 62.4578C357.912 61.5914 356.806 61.2 355.637 61.2V63.2ZM357.365 63.872L355.95 65.2862C355.98 65.3158 356.037 65.3618 356.037 65.6H358.037H360.037C360.037 64.4302 359.645 63.3242 358.779 62.4578L357.365 63.872ZM358.037 65.6H356.037C356.037 65.7234 356.01 65.8386 355.859 66.011L357.365 67.328L358.87 68.645C359.615 67.7934 360.037 66.7566 360.037 65.6H358.037ZM357.365 67.328L355.95 65.9138C355.921 65.9434 355.875 66 355.637 66V68V70C356.806 70 357.912 69.6086 358.779 68.7422L357.365 67.328ZM355.637 68V66H329.621V68V70H355.637V68ZM399.434 19.136L398.4 20.8484L398.407 20.8523L398.413 20.8561L399.434 19.136ZM408.362 28.544L406.601 29.4939L406.611 29.5106L406.62 29.5272L408.362 28.544ZM408.746 55.904L406.951 55.021L406.945 55.0329L408.746 55.904ZM400.298 65.408L401.366 67.099L401.373 67.0941L400.298 65.408ZM374.09 65.408L373.027 67.1024L373.037 67.1089L373.048 67.1153L374.09 65.408ZM365.162 55.904L363.396 56.8437L363.402 56.8547L363.408 56.8657L365.162 55.904ZM365.162 28.544L366.933 29.472L366.933 29.472L365.162 28.544ZM373.898 19.136L372.877 17.4159L372.871 17.4197L372.864 17.4236L373.898 19.136ZM376.394 23.456L377.444 25.1581L377.454 25.152L376.394 23.456ZM369.29 31.232L367.515 30.3104L367.511 30.317L367.508 30.3236L369.29 31.232ZM369.29 53.408L367.508 54.3164L367.515 54.3301L367.522 54.3438L369.29 53.408ZM397.802 61.184L396.725 59.4982L396.717 59.5034L396.709 59.5088L397.802 61.184ZM404.618 53.408L406.427 54.2596L406.43 54.2529L406.433 54.2461L404.618 53.408ZM404.234 31.136L402.466 32.0718L402.473 32.0852L402.48 32.0985L404.234 31.136ZM397.13 23.456L396.053 25.1418L396.066 25.1501L396.079 25.1581L397.13 23.456ZM387.05 15.776V17.776C391.248 17.776 395.015 18.8058 398.4 20.8484L399.434 19.136L400.467 17.4236C396.428 14.9862 391.939 13.776 387.05 13.776V15.776ZM399.434 19.136L398.413 20.8561C401.863 22.9029 404.59 25.7664 406.601 29.4939L408.362 28.544L410.122 27.5941C407.781 23.2576 404.556 19.8491 400.454 17.4159L399.434 19.136ZM408.362 28.544L406.62 29.5272C408.666 33.1523 409.722 37.4116 409.722 42.368H411.722H413.722C413.722 36.8284 412.537 31.8717 410.103 27.5608L408.362 28.544ZM411.722 42.368H409.722C409.722 47.0882 408.785 51.293 406.951 55.021L408.746 55.904L410.54 56.787C412.674 52.451 413.722 47.6318 413.722 42.368H411.722ZM408.746 55.904L406.945 55.0329C405.186 58.6677 402.621 61.5534 399.222 63.7219L400.298 65.408L401.373 67.0941C405.398 64.5266 408.465 61.0763 410.546 56.7751L408.746 55.904ZM400.298 65.408L399.23 63.717C395.96 65.7817 391.932 66.864 387.05 66.864V68.864V70.864C392.535 70.864 397.339 69.6423 401.365 67.099L400.298 65.408ZM387.05 68.864V66.864C382.515 66.864 378.563 65.7945 375.131 63.7007L374.09 65.408L373.048 67.1153C377.168 69.6295 381.856 70.864 387.05 70.864V68.864ZM374.09 65.408L375.152 63.7136C371.67 61.5298 368.93 58.6159 366.915 54.9423L365.162 55.904L363.408 56.8657C365.745 61.1281 368.957 64.5502 373.027 67.1024L374.09 65.408ZM365.162 55.904L366.927 54.9643C364.981 51.309 363.994 47.2199 363.994 42.656H361.994H359.994C359.994 47.8201 361.118 52.563 363.396 56.8437L365.162 55.904ZM361.994 42.656H363.994C363.994 37.5448 364.996 33.17 366.933 29.472L365.162 28.544L363.39 27.616C361.103 31.982 359.994 37.0152 359.994 42.656H361.994ZM365.162 28.544L366.933 29.472C368.884 25.7472 371.548 22.8898 374.931 20.8484L373.898 19.136L372.864 17.4236C368.823 19.8622 365.663 23.2768 363.39 27.616L365.162 28.544ZM373.898 19.136L374.918 20.8561C378.345 18.8233 382.366 17.776 387.05 17.776V15.776V13.776C381.749 13.776 377.002 14.9687 372.877 17.4159L373.898 19.136ZM387.05 20.576V18.576C382.686 18.576 378.758 19.6194 375.334 21.76L376.394 23.456L377.454 25.152C380.173 23.4526 383.349 22.576 387.05 22.576V20.576ZM376.394 23.456L375.343 21.7539C372.009 23.8115 369.399 26.6818 367.515 30.3104L369.29 31.232L371.065 32.1536C372.636 29.1262 374.762 26.8125 377.444 25.1581L376.394 23.456ZM369.29 31.232L367.508 30.3236C365.676 33.9172 364.794 38.0472 364.794 42.656H366.794H368.794C368.794 38.5608 369.575 35.0748 371.071 32.1404L369.29 31.232ZM366.794 42.656H364.794C364.794 46.8545 365.691 50.7527 367.508 54.3164L369.29 53.408L371.071 52.4996C369.56 49.5353 368.794 46.2655 368.794 42.656H366.794ZM369.29 53.408L367.522 54.3438C369.411 57.9127 372.053 60.7695 375.43 62.88L376.49 61.184L377.55 59.488C374.782 57.7585 372.624 55.4313 371.057 52.4722L369.29 53.408ZM376.49 61.184L375.43 62.88C378.849 65.0174 382.744 66.064 387.05 66.064V64.064V62.064C383.419 62.064 380.274 61.1906 377.55 59.488L376.49 61.184ZM387.05 64.064V66.064C391.582 66.064 395.565 65.0306 398.894 62.8592L397.802 61.184L396.709 59.5088C394.151 61.1774 390.965 62.064 387.05 62.064V64.064ZM397.802 61.184L398.878 62.8698C402.208 60.7443 404.732 57.8614 406.427 54.2596L404.618 53.408L402.808 52.5564C401.431 55.4826 399.411 57.7837 396.725 59.4982L397.802 61.184ZM404.618 53.408L406.433 54.2461C408.102 50.63 408.922 46.6602 408.922 42.368H406.922H404.922C404.922 46.1398 404.205 49.53 402.802 52.5699L404.618 53.408ZM406.922 42.368H408.922C408.922 37.8534 407.961 33.7702 405.987 30.1735L404.234 31.136L402.48 32.0985C404.09 35.0298 404.922 38.4346 404.922 42.368H406.922ZM404.234 31.136L406.001 30.2002C404.114 26.6362 401.505 23.8055 398.18 21.7539L397.13 23.456L396.079 25.1581C398.77 26.8185 400.897 29.1078 402.466 32.0718L404.234 31.136ZM397.13 23.456L398.206 21.7702C394.863 19.6365 391.127 18.576 387.05 18.576V20.576V22.576C390.396 22.576 393.38 23.4355 396.053 25.1418L397.13 23.456ZM470.857 68.48L472.02 66.8525L471.938 66.7937L471.85 66.7435L470.857 68.48ZM469.705 67.04L471.526 66.2124L471.511 66.1787L471.494 66.1456L469.705 67.04ZM466.633 60.128L464.787 60.8972L464.787 60.8972L466.633 60.128ZM462.505 49.76L460.624 50.4385L460.631 50.4573L460.638 50.4759L462.505 49.76ZM458.185 38.048L456.301 38.7168L456.307 38.7353L456.314 38.7536L458.185 38.048ZM454.441 27.2L456.339 26.5675L454.475 20.9769L452.551 26.547L454.441 27.2ZM450.409 38.432L452.281 39.1376L452.285 39.1276L450.409 38.432ZM445.993 50.048L447.857 50.7744L447.861 50.7639L445.993 50.048ZM441.865 60.32L440.019 59.5508L440.015 59.5606L440.011 59.5704L441.865 60.32ZM438.889 67.424L440.702 68.2698L440.71 68.2531L440.717 68.2363L438.889 67.424ZM434.953 68.192L433.539 69.6062L433.539 69.6062L434.953 68.192ZM434.089 66.944L435.928 66.1562L435.919 66.1362L435.91 66.1164L434.089 66.944ZM431.497 60.608L429.627 61.3148L429.629 61.3218L429.632 61.3288L431.497 60.608ZM427.945 51.008L426.062 51.6807L426.066 51.6915L427.945 51.008ZM424.201 40.256L422.304 40.8885L422.308 40.8986L424.201 40.256ZM420.841 30.272L418.933 30.8685L418.94 30.8926L418.948 30.9165L420.841 30.272ZM418.633 22.976L420.557 22.4266L420.557 22.4266L418.633 22.976ZM417.865 20.192L419.806 19.7069L419.806 19.7069L417.865 20.192ZM418.345 17.504L419.76 18.9182L419.76 18.9182L418.345 17.504ZM422.377 18.464L420.45 18.9993L420.453 19.0069L422.377 18.464ZM425.161 27.776L423.251 28.3688L423.254 28.3783L425.161 27.776ZM428.905 39.296L427.008 39.9285L427.013 39.9419L427.017 39.9554L428.905 39.296ZM433.033 50.912L431.153 51.5929L431.153 51.5929L433.033 50.912ZM436.585 60.416L434.722 61.1431L436.499 65.6954L438.424 61.2038L436.585 60.416ZM440.425 51.008L438.564 50.2767L438.564 50.2767L440.425 51.008ZM444.745 39.872L446.613 40.5879L446.617 40.5776L444.745 39.872ZM448.873 28.544L446.993 27.8631L446.99 27.8725L446.986 27.8818L448.873 28.544ZM452.137 18.752L454.056 19.3187L454.06 19.303L454.065 19.2873L452.137 18.752ZM457.129 19.904L459.032 19.2858L459.029 19.2787L459.027 19.2715L457.129 19.904ZM460.201 29.12L458.308 29.7626L458.313 29.7777L458.318 29.7927L460.201 29.12ZM464.233 40.352L462.352 41.0305L462.356 41.0405L464.233 40.352ZM468.361 51.488L466.489 52.1902L466.496 52.2106L466.505 52.2308L468.361 51.488ZM472.009 60.608L470.153 61.3508L471.999 65.9657L473.863 61.3584L472.009 60.608ZM475.561 51.2L473.685 50.5086L473.681 50.5179L473.678 50.5273L475.561 51.2ZM479.593 39.872L481.485 40.523L481.488 40.5136L479.593 39.872ZM486.505 18.464L488.427 19.0191L488.43 19.0092L488.433 18.9993L486.505 18.464ZM490.441 17.504L489.027 18.9182L489.074 18.9653L489.124 19.0092L490.441 17.504ZM490.729 21.152L488.811 20.5877L488.808 20.5984L488.805 20.6091L490.729 21.152ZM487.945 29.984L486.052 29.3408L486.048 29.3517L486.045 29.3625L487.945 29.984ZM484.393 40.544L482.503 39.892L482.499 39.9018L482.496 39.9115L484.393 40.544ZM480.649 51.296L482.529 51.9795L482.529 51.9795L480.649 51.296ZM477.097 60.896L478.963 61.6168L478.966 61.6098L478.968 61.6028L477.097 60.896ZM474.409 67.52L476.222 68.3658L476.231 68.3457L476.24 68.3255L474.409 67.52ZM472.105 68.96V66.96C472.195 66.96 472.239 66.9791 472.223 66.9733C472.205 66.9662 472.137 66.9364 472.02 66.8525L470.857 68.48L469.695 70.1075C470.341 70.5687 471.159 70.96 472.105 70.96V68.96ZM470.857 68.48L471.85 66.7435C471.882 66.762 471.859 66.7587 471.795 66.6786C471.729 66.5961 471.634 66.4505 471.526 66.2124L469.705 67.04L467.885 67.8676C468.297 68.7735 468.911 69.6715 469.865 70.2165L470.857 68.48ZM469.705 67.04L471.494 66.1456C470.758 64.6727 469.755 62.4198 468.48 59.3588L466.633 60.128L464.787 60.8972C466.072 63.9802 467.117 66.3353 467.917 67.9344L469.705 67.04ZM466.633 60.128L468.48 59.3588C467.208 56.308 465.84 52.8702 464.373 49.0441L462.505 49.76L460.638 50.4759C462.115 54.3298 463.499 57.804 464.787 60.8972L466.633 60.128ZM462.505 49.76L464.387 49.0815C462.976 45.1684 461.532 41.2553 460.057 37.3424L458.185 38.048L456.314 38.7536C457.783 42.6487 459.219 46.5436 460.624 50.4385L462.505 49.76ZM458.185 38.048L460.07 37.3792C458.666 33.4207 457.422 29.8171 456.339 26.5675L454.441 27.2L452.544 27.8325C453.637 31.1109 454.889 34.7393 456.301 38.7168L458.185 38.048ZM454.441 27.2L452.551 26.547C451.341 30.0509 450.002 33.7807 448.534 37.7364L450.409 38.432L452.285 39.1276C453.761 35.1473 455.11 31.3891 456.332 27.853L454.441 27.2ZM450.409 38.432L448.538 37.7264C447.067 41.627 445.597 45.4956 444.126 49.3321L445.993 50.048L447.861 50.7639C449.334 46.9204 450.808 43.045 452.281 39.1376L450.409 38.432ZM445.993 50.048L444.13 49.3216C442.663 53.0862 441.292 56.4956 440.019 59.5508L441.865 60.32L443.712 61.0892C444.999 58.0004 446.38 54.5618 447.857 50.7744L445.993 50.048ZM441.865 60.32L440.011 59.5704C438.799 62.5699 437.816 64.914 437.062 66.6117L438.889 67.424L440.717 68.2363C441.499 66.478 442.5 64.0861 443.72 61.0696L441.865 60.32ZM438.889 67.424L437.077 66.5782C436.988 66.7687 436.921 66.8056 436.917 66.808C436.91 66.8125 436.831 66.864 436.585 66.864V68.864V70.864C437.428 70.864 438.277 70.6755 439.037 70.2C439.802 69.7224 440.343 69.0393 440.702 68.2698L438.889 67.424ZM436.585 68.864V66.864C436.504 66.864 436.469 66.8507 436.459 66.8466C436.449 66.8427 436.42 66.8296 436.368 66.7778L434.953 68.192L433.539 69.6062C434.367 70.4335 435.421 70.864 436.585 70.864V68.864ZM434.953 68.192L436.368 66.7778C436.143 66.5532 436.009 66.345 435.928 66.1562L434.089 66.944L432.251 67.7318C432.554 68.439 432.996 69.0628 433.539 69.6062L434.953 68.192ZM434.089 66.944L435.91 66.1164C435.295 64.7626 434.448 62.6942 433.363 59.8872L431.497 60.608L429.632 61.3288C430.723 64.1538 431.604 66.3094 432.269 67.7716L434.089 66.944ZM431.497 60.608L433.368 59.9012C432.284 57.0304 431.103 53.8383 429.825 50.3245L427.945 51.008L426.066 51.6915C427.348 55.2177 428.535 58.4256 429.627 61.3148L431.497 60.608ZM427.945 51.008L429.829 50.3353C428.553 46.7613 427.308 43.1873 426.095 39.6134L424.201 40.256L422.308 40.8986C423.527 44.4927 424.778 48.0867 426.062 51.6807L427.945 51.008ZM424.201 40.256L426.099 39.6235C424.882 35.9723 423.76 32.6402 422.735 29.6275L420.841 30.272L418.948 30.9165C419.971 33.9198 421.089 37.2437 422.304 40.8885L424.201 40.256ZM420.841 30.272L422.75 29.6754C421.792 26.6096 421.062 24.1955 420.557 22.4266L418.633 22.976L416.71 23.5254C417.229 25.3405 417.971 27.7904 418.933 30.8685L420.841 30.272ZM418.633 22.976L420.557 22.4266C420.172 21.0802 419.925 20.1823 419.806 19.7069L417.865 20.192L415.925 20.6771C416.062 21.2257 416.327 22.1837 416.71 23.5254L418.633 22.976ZM417.865 20.192L419.806 19.7069C419.748 19.4753 419.711 19.3047 419.689 19.1862C419.679 19.1277 419.674 19.0925 419.672 19.0763C419.669 19.0561 419.673 19.0808 419.673 19.136H417.673H415.673C415.673 19.6097 415.804 20.1907 415.925 20.6771L417.865 20.192ZM417.673 19.136H419.673C419.673 19.0541 419.687 19.0195 419.691 19.0095C419.695 18.9999 419.708 18.97 419.76 18.9182L418.345 17.504L416.931 16.0898C416.104 16.9171 415.673 17.9716 415.673 19.136H417.673ZM418.345 17.504L419.76 18.9182C419.95 18.7276 420.035 18.736 420.073 18.736V16.736V14.736C418.832 14.736 417.765 15.2564 416.931 16.0898L418.345 17.504ZM420.073 16.736V18.736C420.365 18.736 420.407 18.8018 420.361 18.768C420.346 18.7563 420.347 18.7511 420.361 18.7736C420.378 18.7999 420.414 18.8674 420.45 18.9993L422.377 18.464L424.305 17.9287C424.056 17.0337 423.578 16.1803 422.761 15.568C421.948 14.9581 420.998 14.736 420.073 14.736V16.736ZM422.377 18.464L420.453 19.0069C421.163 21.5256 422.096 24.6475 423.251 28.3688L425.161 27.776L427.072 27.1832C425.923 23.4805 425 20.3944 424.302 17.9211L422.377 18.464ZM425.161 27.776L423.254 28.3783C424.41 32.0374 425.661 35.8875 427.008 39.9285L428.905 39.296L430.803 38.6635C429.462 34.6405 428.217 30.8106 427.069 27.1737L425.161 27.776ZM428.905 39.296L427.017 39.9554C428.428 43.994 429.806 47.8732 431.153 51.5929L433.033 50.912L434.914 50.2311C433.573 46.5268 432.199 42.662 430.794 38.6366L428.905 39.296ZM433.033 50.912L431.153 51.5929C432.501 55.3147 433.691 58.4991 434.722 61.1431L436.585 60.416L438.449 59.6889C437.432 57.0849 436.254 53.9333 434.914 50.2311L433.033 50.912ZM436.585 60.416L438.424 61.2038C439.586 58.4923 440.874 55.3367 442.287 51.7393L440.425 51.008L438.564 50.2767C437.161 53.8473 435.889 56.9637 434.747 59.6282L436.585 60.416ZM440.425 51.008L442.287 51.7393C443.697 48.1498 445.139 44.4327 446.613 40.5879L444.745 39.872L442.878 39.1561C441.408 42.9913 439.97 46.6982 438.564 50.2767L440.425 51.008ZM444.745 39.872L446.617 40.5776C448.094 36.6603 449.475 32.8698 450.761 29.2062L448.873 28.544L446.986 27.8818C445.712 31.5142 444.341 35.2757 442.874 39.1664L444.745 39.872ZM448.873 28.544L450.754 29.2249C452.107 25.4871 453.209 22.1836 454.056 19.3187L452.137 18.752L450.219 18.1853C449.402 20.9524 448.328 24.1769 446.993 27.8631L448.873 28.544ZM452.137 18.752L454.065 19.2873C454.101 19.1554 454.137 19.0879 454.154 19.0616C454.168 19.0391 454.169 19.0443 454.153 19.056C454.108 19.0898 454.15 19.024 454.441 19.024V17.024V15.024C453.517 15.024 452.567 15.2462 451.753 15.856C450.937 16.4683 450.459 17.3217 450.21 18.2167L452.137 18.752ZM454.441 17.024V19.024C454.442 19.024 454.423 19.0218 454.409 19.0149C454.4 19.0107 454.438 19.0255 454.515 19.1086C454.69 19.296 454.959 19.7161 455.232 20.5365L457.129 19.904L459.027 19.2715C458.344 17.2225 457.006 15.024 454.441 15.024V17.024ZM457.129 19.904L455.227 20.5222C456.063 23.0928 457.09 26.1734 458.308 29.7626L460.201 29.12L462.095 28.4774C460.881 24.8986 459.86 21.8351 459.032 19.2858L457.129 19.904ZM460.201 29.12L458.318 29.7927C459.599 33.3788 460.943 37.1248 462.352 41.0305L464.233 40.352L466.115 39.6735C464.708 35.7712 463.364 32.0292 462.085 28.4473L460.201 29.12ZM464.233 40.352L462.356 41.0405C463.765 44.8848 465.143 48.6014 466.489 52.1902L468.361 51.488L470.234 50.7858C468.892 47.2066 467.518 43.4992 466.111 39.6635L464.233 40.352ZM468.361 51.488L466.505 52.2308C467.913 55.7508 469.129 58.7908 470.153 61.3508L472.009 60.608L473.866 59.8652C472.842 57.3052 471.626 54.2652 470.218 50.7452L468.361 51.488ZM472.009 60.608L473.863 61.3584C474.964 58.6382 476.158 55.4752 477.445 51.8727L475.561 51.2L473.678 50.5273C472.405 54.0928 471.231 57.2018 470.156 59.8576L472.009 60.608ZM475.561 51.2L477.438 51.8914C478.787 48.2292 480.136 44.4397 481.485 40.523L479.593 39.872L477.702 39.221C476.363 43.1123 475.024 46.8748 473.685 50.5086L475.561 51.2ZM479.593 39.872L481.488 40.5136C482.834 36.5397 484.116 32.6934 485.334 28.9746L483.433 28.352L481.533 27.7294C480.319 31.4346 479.041 35.2683 477.699 39.2304L479.593 39.872ZM483.433 28.352L485.334 28.9746C486.555 25.2465 487.587 21.9273 488.427 19.0191L486.505 18.464L484.584 17.9089C483.76 20.7607 482.744 24.0335 481.533 27.7294L483.433 28.352ZM486.505 18.464L488.433 18.9993C488.469 18.8674 488.505 18.7999 488.522 18.7736C488.536 18.7511 488.537 18.7563 488.521 18.768C488.476 18.8018 488.518 18.736 488.809 18.736V16.736V14.736C487.885 14.736 486.935 14.9581 486.121 15.568C485.305 16.1803 484.827 17.0337 484.578 17.9287L486.505 18.464ZM488.809 16.736V18.736C488.79 18.736 488.78 18.7294 488.798 18.7376C488.823 18.7495 488.902 18.7931 489.027 18.9182L490.441 17.504L491.856 16.0898C491.07 15.3044 490.044 14.736 488.809 14.736V16.736ZM490.441 17.504L489.124 19.0092C489.2 19.0754 489.212 19.1079 489.208 19.0996C489.207 19.0975 489.206 19.0956 489.207 19.0967C489.207 19.0982 489.209 19.1101 489.209 19.136H491.209H493.209C493.209 17.8793 492.674 16.7995 491.759 15.9988L490.441 17.504ZM491.209 19.136H489.209C489.209 19.0284 489.222 18.9859 489.209 19.0662C489.198 19.1266 489.178 19.2247 489.144 19.3688C489.075 19.6563 488.966 20.0589 488.811 20.5877L490.729 21.152L492.648 21.7163C492.813 21.1571 492.944 20.6797 493.035 20.2952C493.11 19.9804 493.209 19.5314 493.209 19.136H491.209ZM490.729 21.152L488.805 20.6091C488.113 23.0615 487.196 25.9705 486.052 29.3408L487.945 29.984L489.839 30.6272C490.999 27.2135 491.938 24.2345 492.654 21.6949L490.729 21.152ZM487.945 29.984L486.045 29.3625C484.96 32.6792 483.78 36.189 482.503 39.892L484.393 40.544L486.284 41.196C487.567 37.475 488.755 33.9448 489.846 30.6055L487.945 29.984ZM484.393 40.544L482.496 39.9115C481.286 43.5429 480.044 47.1099 478.77 50.6125L480.649 51.296L482.529 51.9795C483.815 48.4421 485.069 44.8411 486.291 41.1765L484.393 40.544ZM480.649 51.296L478.77 50.6125C477.492 54.1263 476.311 57.3184 475.227 60.1892L477.097 60.896L478.968 61.6028C480.06 58.7136 481.247 55.5057 482.529 51.9795L480.649 51.296ZM477.097 60.896L475.232 60.1752C474.148 62.9799 473.265 65.1554 472.579 66.7145L474.409 67.52L476.24 68.3255C476.962 66.6846 477.871 64.4441 478.963 61.6168L477.097 60.896ZM474.409 67.52L472.597 66.6742C472.508 66.8647 472.441 66.9016 472.437 66.904C472.43 66.9085 472.351 66.96 472.105 66.96V68.96V70.96C472.948 70.96 473.797 70.7715 474.557 70.296C475.322 69.8184 475.863 69.1353 476.222 68.3658L474.409 67.52Z" fill="#303030"/>
</g>
<g clip-path="url(#clip0_0_1)">
<path fill-rule="evenodd" clip-rule="evenodd" d="M118.595 77.8917C119.765 77.004 121.5 78.1507 120.81 79.3573C108.437 100.995 80.4945 113.76 51.7379 109C17.1925 103.279 -5.44924 74.4344 1.16699 44.5709C6.67478 19.7125 30.7205 1.98458 58.5526 0.0413301C60.105 -0.067054 60.6959 1.75005 59.31 2.36203C45.1911 8.59268 34.4276 20.1893 31.2142 34.6898C25.6861 59.6377 44.6018 83.7364 73.4624 88.5136C90.2368 91.2916 106.68 86.9311 118.595 77.8917Z" fill="#2C4F9E"/>
</g>
<defs>
<filter id="filter0_d_0_1" x="60.336" y="13.776" width="436.874" height="65.184" filterUnits="userSpaceOnUse" color-interpolation-filters="sRGB">
<feFlood flood-opacity="0" result="BackgroundImageFix"/>
<feColorMatrix in="SourceAlpha" type="matrix" values="0 0 0 0 0 0 0 0 0 0 0 0 0 0 0 0 0 0 127 0" result="hardAlpha"/>
<feOffset dy="4"/>
<feGaussianBlur stdDeviation="2"/>
<feComposite in2="hardAlpha" operator="out"/>
<feColorMatrix type="matrix" values="0 0 0 0 0 0 0 0 0 0 0 0 0 0 0 0 0 0 0.25 0"/>
<feBlend mode="normal" in2="BackgroundImageFix" result="effect1_dropShadow_0_1"/>
<feBlend mode="normal" in="SourceGraphic" in2="effect1_dropShadow_0_1" result="shape"/>
</filter>
<clipPath id="clip0_0_1">
<rect width="121" height="110" fill="white"/>
</clipPath>
</defs>
</svg>
