<?xml version="1.0" encoding="UTF-8" standalone="no"?>
<!-- Created with Inkscape (http://www.inkscape.org/) -->

<svg
   width="32"
   height="32"
   viewBox="0 0 47.378227 62.752907"
   preserveAspectRatio="xMidYMid"
   version="1.1"
   id="svg1"
   xmlns="http://www.w3.org/2000/svg"
   xmlns:svg="http://www.w3.org/2000/svg">
  <defs
     id="defs1">
    <clipPath
       clipPathUnits="userSpaceOnUse"
       id="clipPath2">
      <path
         d="M 0,841.89 H 1190.551 V 0 H 0 Z"
         transform="translate(-291.8413,-488.76951)"
         id="path2" />
    </clipPath>
    <clipPath
       clipPathUnits="userSpaceOnUse"
       id="clipPath4">
      <path
         d="M 0,841.89 H 1190.551 V 0 H 0 Z"
         transform="translate(-294.03081,-516.86041)"
         id="path4" />
    </clipPath>
    <linearGradient
       x1="0"
       y1="0"
       x2="1"
       y2="0"
       gradientUnits="userSpaceOnUse"
       gradientTransform="matrix(97.219345,-60.749252,60.749252,97.219345,295.63672,598.22119)"
       spreadMethod="pad"
       id="linearGradient5">
      <stop
         style="stop-opacity:1;stop-color:#be1a20"
         offset="0"
         id="stop4" />
      <stop
         style="stop-opacity:1;stop-color:#ed1c24"
         offset="1"
         id="stop5" />
    </linearGradient>
    <clipPath
       clipPathUnits="userSpaceOnUse"
       id="clipPath7">
      <path
         d="M 0,841.89 H 1190.551 V 0 H 0 Z"
         transform="translate(-484.65771,-616.99121)"
         id="path7" />
    </clipPath>
    <clipPath
       clipPathUnits="userSpaceOnUse"
       id="clipPath9">
      <path
         d="M 0,841.89 H 1190.551 V 0 H 0 Z"
         transform="translate(-557.38822,-608.83592)"
         id="path9" />
    </clipPath>
    <clipPath
       clipPathUnits="userSpaceOnUse"
       id="clipPath11">
      <path
         d="M 0,841.89 H 1190.551 V 0 H 0 Z"
         transform="translate(-543.01121,-603.58112)"
         id="path11" />
    </clipPath>
    <clipPath
       clipPathUnits="userSpaceOnUse"
       id="clipPath13">
      <path
         d="M 0,841.89 H 1190.551 V 0 H 0 Z"
         transform="translate(-607.86131,-603.58112)"
         id="path13" />
    </clipPath>
    <clipPath
       clipPathUnits="userSpaceOnUse"
       id="clipPath15">
      <path
         d="M 0,841.89 H 1190.551 V 0 H 0 Z"
         transform="translate(-737.29102,-593.34772)"
         id="path15" />
    </clipPath>
    <clipPath
       clipPathUnits="userSpaceOnUse"
       id="clipPath17">
      <path
         d="M 0,841.89 H 1190.551 V 0 H 0 Z"
         transform="translate(-764.94534,-534.43951)"
         id="path17" />
    </clipPath>
    <clipPath
       clipPathUnits="userSpaceOnUse"
       id="clipPath19">
      <path
         d="M 0,841.89 H 1190.551 V 0 H 0 Z"
         transform="translate(-896.31055,-599.15431)"
         id="path19" />
    </clipPath>
    <clipPath
       clipPathUnits="userSpaceOnUse"
       id="clipPath21">
      <path
         d="M 0,841.89 H 1190.551 V 0 H 0 Z"
         transform="translate(-450.76861,-488.98831)"
         id="path21" />
    </clipPath>
    <clipPath
       clipPathUnits="userSpaceOnUse"
       id="clipPath23">
      <path
         d="M 0,841.89 H 1190.551 V 0 H 0 Z"
         transform="translate(-474.87991,-513.23242)"
         id="path23" />
    </clipPath>
    <clipPath
       clipPathUnits="userSpaceOnUse"
       id="clipPath25">
      <path
         d="M 0,841.89 H 1190.551 V 0 H 0 Z"
         transform="translate(-500.66311,-510.28421)"
         id="path25" />
    </clipPath>
    <clipPath
       clipPathUnits="userSpaceOnUse"
       id="clipPath27">
      <path
         d="M 0,841.89 H 1190.551 V 0 H 0 Z"
         transform="translate(-508.84672,-493.56451)"
         id="path27" />
    </clipPath>
    <clipPath
       clipPathUnits="userSpaceOnUse"
       id="clipPath29">
      <path
         d="M 0,841.89 H 1190.551 V 0 H 0 Z"
         transform="translate(-542.81452,-499.10841)"
         id="path29" />
    </clipPath>
    <clipPath
       clipPathUnits="userSpaceOnUse"
       id="clipPath31">
      <path
         d="M 0,841.89 H 1190.551 V 0 H 0 Z"
         transform="translate(-582.45751,-513.23242)"
         id="path31" />
    </clipPath>
    <clipPath
       clipPathUnits="userSpaceOnUse"
       id="clipPath33">
      <path
         d="M 0,841.89 H 1190.551 V 0 H 0 Z"
         transform="translate(-611.62892,-502.54001)"
         id="path33" />
    </clipPath>
    <clipPath
       clipPathUnits="userSpaceOnUse"
       id="clipPath35">
      <path
         d="M 0,841.89 H 1190.551 V 0 H 0 Z"
         transform="translate(-649.59962,-489.42771)"
         id="path35" />
    </clipPath>
    <clipPath
       clipPathUnits="userSpaceOnUse"
       id="clipPath37">
      <path
         d="M 0,841.89 H 1190.551 V 0 H 0 Z"
         transform="translate(-685.54691,-502.89262)"
         id="path37" />
    </clipPath>
    <clipPath
       clipPathUnits="userSpaceOnUse"
       id="clipPath39">
      <path
         d="M 0,841.89 H 1190.551 V 0 H 0 Z"
         transform="translate(-716.52252,-501.83591)"
         id="path39" />
    </clipPath>
    <clipPath
       clipPathUnits="userSpaceOnUse"
       id="clipPath41">
      <path
         d="M 0,841.89 H 1190.551 V 0 H 0 Z"
         transform="translate(-738.91892,-518.46781)"
         id="path41" />
    </clipPath>
    <clipPath
       clipPathUnits="userSpaceOnUse"
       id="clipPath43">
      <path
         d="M 0,841.89 H 1190.551 V 0 H 0 Z"
         transform="translate(-758.41112,-502.89262)"
         id="path43" />
    </clipPath>
    <clipPath
       clipPathUnits="userSpaceOnUse"
       id="clipPath45">
      <path
         d="M 0,841.89 H 1190.551 V 0 H 0 Z"
         transform="translate(-773.01954,-493.56451)"
         id="path45" />
    </clipPath>
    <clipPath
       clipPathUnits="userSpaceOnUse"
       id="clipPath47">
      <path
         d="M 0,841.89 H 1190.551 V 0 H 0 Z"
         transform="translate(-803.20315,-513.23242)"
         id="path47" />
    </clipPath>
    <clipPath
       clipPathUnits="userSpaceOnUse"
       id="clipPath49">
      <path
         d="M 0,841.89 H 1190.551 V 0 H 0 Z"
         transform="translate(-828.98635,-510.28421)"
         id="path49" />
    </clipPath>
    <clipPath
       clipPathUnits="userSpaceOnUse"
       id="clipPath51">
      <path
         d="M 0,841.89 H 1190.551 V 0 H 0 Z"
         transform="translate(-849.57812,-502.54001)"
         id="path51" />
    </clipPath>
    <clipPath
       clipPathUnits="userSpaceOnUse"
       id="clipPath53">
      <path
         d="M 0,841.89 H 1190.551 V 0 H 0 Z"
         transform="translate(-870.52255,-506.41211)"
         id="path53" />
    </clipPath>
  </defs>
  <g
     id="layer1"
     transform="translate(-3.9687297,-87.34679)">
    <g
       id="g1"
       transform="matrix(0.26458333,0,0,0.26458333,-91.921507,20.756393)">
      <path
         id="path1"
         d="M 0,0 C -41.655,26.029 -54.324,80.892 -28.298,122.544 -2.274,164.193 52.593,176.862 94.248,150.838 135.902,124.811 148.571,69.95 122.547,28.298 96.521,-13.356 41.655,-26.023 0,0"
         style="fill:#000000;fill-opacity:1;fill-rule:evenodd;stroke:none"
         transform="matrix(1.3333333,0,0,-1.3333333,389.12173,470.82733)"
         clip-path="url(#clipPath2)" />
      <path
         id="path3"
         d="m 0,0 c 0,0 -0.108,-3.021 -0.284,-4.855 -0.177,-1.828 -4.234,-3.629 -5.743,-4.005 -1.51,-0.379 -10.952,1.931 -12.313,2.576 0,0 14.496,-8.231 18.526,-9.312 4.031,-1.077 7.616,-1.726 11.11,-5.639 3.494,-3.912 18.58,-14.249 18.58,-14.249 0,0 -9.93,7.488 -6.95,13.361 l 1.928,4.269 c 0,0 12.757,0.005 36.02,9.164 34.836,13.594 50.771,36.283 50.771,36.283 0,0 1.226,1.961 2.925,2.661 1.7,0.703 5.678,-0.518 6.722,-1.674 1.043,-1.159 2.931,-8.156 3,-9.658 0,0 0.365,13.914 -0.577,17.981 -0.938,4.064 -2.048,7.535 -0.236,12.456 1.815,4.921 2.849,22.665 2.849,22.665 0,0 -0.938,-11.854 -7.522,-11.975 l -3.818,-0.455 c 0,0 -9.037,18.966 -42.509,38.622 0,0 -8.968,4.458 -13.049,5.998 -16.365,6.99 -28.47,8.23 -28.47,8.23 0,0 -2.316,0.102 -3.83,1.209 -1.517,1.109 -2.329,4.624 -1.914,6.067 0.415,1.44 6.2,9.131 7.437,9.908 0,0 -13.155,-8.642 -16.092,-11.386 -2.933,-2.747 -5.27,-5.352 -10.415,-6.168 -5.146,-0.816 -20.32,-7.56 -20.32,-7.56 0,0 11.988,4.658 15.648,-0.876 l 2.225,-5.382 c 0,0 -12.311,-24.409 -10.142,-53.846 0,0 -0.635,-20.318 6.443,-44.41"
         style="fill:#ffffff;fill-opacity:1;fill-rule:evenodd;stroke:none"
         transform="matrix(1.3333333,0,0,-1.3333333,392.04107,433.3728)"
         clip-path="url(#clipPath4)" />
      <path
         id="path5"
         d="m 306.439,614.05 c 0,0 -7.564,-16.314 -8.915,-50.613 v 0 c -1.014,-25.798 6.424,-48.504 6.424,-48.504 v 0 c 2.254,-10.883 9.4,-8.713 9.4,-8.713 v 0 c 0,0 51.68,3.183 90.594,49.356 v 0 c 0,0 2.486,2.501 3.08,6.885 v 0 c -0.056,3.818 -2.609,6.907 -2.609,6.907 v 0 c -36.442,48.145 -88.256,52.846 -88.256,52.846 v 0 c 0,0 -0.492,0.118 -1.263,0.118 v 0 c -2.193,0 -6.632,-0.955 -8.455,-8.282"
         style="fill:url(#linearGradient5);stroke:none"
         transform="matrix(1.3333333,0,0,-1.3333333,0,1122.52)" />
    </g>
  </g>
</svg>
