<?xml version="1.0" encoding="UTF-8" standalone="no"?>
<!-- Created with Inkscape (http://www.inkscape.org/) -->

<svg
   width="120"
   height="33"
   viewBox="0 0 172.12887 62.752907"
   preserveAspectRatio="xMidYMid"
   version="1.1"
   id="svg1"
   xmlns="http://www.w3.org/2000/svg"
   xmlns:svg="http://www.w3.org/2000/svg">
  <defs
     id="defs1">
    <clipPath
       clipPathUnits="userSpaceOnUse"
       id="clipPath2">
      <path
         d="M 0,841.89 H 1190.551 V 0 H 0 Z"
         transform="translate(-291.8413,-488.76951)"
         id="path2" />
    </clipPath>
    <clipPath
       clipPathUnits="userSpaceOnUse"
       id="clipPath4">
      <path
         d="M 0,841.89 H 1190.551 V 0 H 0 Z"
         transform="translate(-294.03081,-516.86041)"
         id="path4" />
    </clipPath>
    <linearGradient
       x1="0"
       y1="0"
       x2="1"
       y2="0"
       gradientUnits="userSpaceOnUse"
       gradientTransform="matrix(97.219345,-60.749252,60.749252,97.219345,295.63672,598.22119)"
       spreadMethod="pad"
       id="linearGradient5">
      <stop
         style="stop-opacity:1;stop-color:#be1a20"
         offset="0"
         id="stop4" />
      <stop
         style="stop-opacity:1;stop-color:#ed1c24"
         offset="1"
         id="stop5" />
    </linearGradient>
    <clipPath
       clipPathUnits="userSpaceOnUse"
       id="clipPath7">
      <path
         d="M 0,841.89 H 1190.551 V 0 H 0 Z"
         transform="translate(-484.65771,-616.99121)"
         id="path7" />
    </clipPath>
    <clipPath
       clipPathUnits="userSpaceOnUse"
       id="clipPath9">
      <path
         d="M 0,841.89 H 1190.551 V 0 H 0 Z"
         transform="translate(-557.38822,-608.83592)"
         id="path9" />
    </clipPath>
    <clipPath
       clipPathUnits="userSpaceOnUse"
       id="clipPath11">
      <path
         d="M 0,841.89 H 1190.551 V 0 H 0 Z"
         transform="translate(-543.01121,-603.58112)"
         id="path11" />
    </clipPath>
    <clipPath
       clipPathUnits="userSpaceOnUse"
       id="clipPath13">
      <path
         d="M 0,841.89 H 1190.551 V 0 H 0 Z"
         transform="translate(-607.86131,-603.58112)"
         id="path13" />
    </clipPath>
    <clipPath
       clipPathUnits="userSpaceOnUse"
       id="clipPath15">
      <path
         d="M 0,841.89 H 1190.551 V 0 H 0 Z"
         transform="translate(-737.29102,-593.34772)"
         id="path15" />
    </clipPath>
    <clipPath
       clipPathUnits="userSpaceOnUse"
       id="clipPath17">
      <path
         d="M 0,841.89 H 1190.551 V 0 H 0 Z"
         transform="translate(-764.94534,-534.43951)"
         id="path17" />
    </clipPath>
    <clipPath
       clipPathUnits="userSpaceOnUse"
       id="clipPath19">
      <path
         d="M 0,841.89 H 1190.551 V 0 H 0 Z"
         transform="translate(-896.31055,-599.15431)"
         id="path19" />
    </clipPath>
    <clipPath
       clipPathUnits="userSpaceOnUse"
       id="clipPath21">
      <path
         d="M 0,841.89 H 1190.551 V 0 H 0 Z"
         transform="translate(-450.76861,-488.98831)"
         id="path21" />
    </clipPath>
    <clipPath
       clipPathUnits="userSpaceOnUse"
       id="clipPath23">
      <path
         d="M 0,841.89 H 1190.551 V 0 H 0 Z"
         transform="translate(-474.87991,-513.23242)"
         id="path23" />
    </clipPath>
    <clipPath
       clipPathUnits="userSpaceOnUse"
       id="clipPath25">
      <path
         d="M 0,841.89 H 1190.551 V 0 H 0 Z"
         transform="translate(-500.66311,-510.28421)"
         id="path25" />
    </clipPath>
    <clipPath
       clipPathUnits="userSpaceOnUse"
       id="clipPath27">
      <path
         d="M 0,841.89 H 1190.551 V 0 H 0 Z"
         transform="translate(-508.84672,-493.56451)"
         id="path27" />
    </clipPath>
    <clipPath
       clipPathUnits="userSpaceOnUse"
       id="clipPath29">
      <path
         d="M 0,841.89 H 1190.551 V 0 H 0 Z"
         transform="translate(-542.81452,-499.10841)"
         id="path29" />
    </clipPath>
    <clipPath
       clipPathUnits="userSpaceOnUse"
       id="clipPath31">
      <path
         d="M 0,841.89 H 1190.551 V 0 H 0 Z"
         transform="translate(-582.45751,-513.23242)"
         id="path31" />
    </clipPath>
    <clipPath
       clipPathUnits="userSpaceOnUse"
       id="clipPath33">
      <path
         d="M 0,841.89 H 1190.551 V 0 H 0 Z"
         transform="translate(-611.62892,-502.54001)"
         id="path33" />
    </clipPath>
    <clipPath
       clipPathUnits="userSpaceOnUse"
       id="clipPath35">
      <path
         d="M 0,841.89 H 1190.551 V 0 H 0 Z"
         transform="translate(-649.59962,-489.42771)"
         id="path35" />
    </clipPath>
    <clipPath
       clipPathUnits="userSpaceOnUse"
       id="clipPath37">
      <path
         d="M 0,841.89 H 1190.551 V 0 H 0 Z"
         transform="translate(-685.54691,-502.89262)"
         id="path37" />
    </clipPath>
    <clipPath
       clipPathUnits="userSpaceOnUse"
       id="clipPath39">
      <path
         d="M 0,841.89 H 1190.551 V 0 H 0 Z"
         transform="translate(-716.52252,-501.83591)"
         id="path39" />
    </clipPath>
    <clipPath
       clipPathUnits="userSpaceOnUse"
       id="clipPath41">
      <path
         d="M 0,841.89 H 1190.551 V 0 H 0 Z"
         transform="translate(-738.91892,-518.46781)"
         id="path41" />
    </clipPath>
    <clipPath
       clipPathUnits="userSpaceOnUse"
       id="clipPath43">
      <path
         d="M 0,841.89 H 1190.551 V 0 H 0 Z"
         transform="translate(-758.41112,-502.89262)"
         id="path43" />
    </clipPath>
    <clipPath
       clipPathUnits="userSpaceOnUse"
       id="clipPath45">
      <path
         d="M 0,841.89 H 1190.551 V 0 H 0 Z"
         transform="translate(-773.01954,-493.56451)"
         id="path45" />
    </clipPath>
    <clipPath
       clipPathUnits="userSpaceOnUse"
       id="clipPath47">
      <path
         d="M 0,841.89 H 1190.551 V 0 H 0 Z"
         transform="translate(-803.20315,-513.23242)"
         id="path47" />
    </clipPath>
    <clipPath
       clipPathUnits="userSpaceOnUse"
       id="clipPath49">
      <path
         d="M 0,841.89 H 1190.551 V 0 H 0 Z"
         transform="translate(-828.98635,-510.28421)"
         id="path49" />
    </clipPath>
    <clipPath
       clipPathUnits="userSpaceOnUse"
       id="clipPath51">
      <path
         d="M 0,841.89 H 1190.551 V 0 H 0 Z"
         transform="translate(-849.57812,-502.54001)"
         id="path51" />
    </clipPath>
    <clipPath
       clipPathUnits="userSpaceOnUse"
       id="clipPath53">
      <path
         d="M 0,841.89 H 1190.551 V 0 H 0 Z"
         transform="translate(-870.52255,-506.41211)"
         id="path53" />
    </clipPath>
  </defs>
  <g
     id="layer1"
     transform="translate(-24.213988,-87.34679)">
    <g
       id="g1"
       transform="matrix(0.26458333,0,0,0.26458333,-91.921507,20.756393)">
      <path
         id="path1"
         d="M 0,0 C -41.655,26.029 -54.324,80.892 -28.298,122.544 -2.274,164.193 52.593,176.862 94.248,150.838 135.902,124.811 148.571,69.95 122.547,28.298 96.521,-13.356 41.655,-26.023 0,0"
         style="fill:#000000;fill-opacity:1;fill-rule:evenodd;stroke:none"
         transform="matrix(1.3333333,0,0,-1.3333333,389.12173,470.82733)"
         clip-path="url(#clipPath2)" />
      <path
         id="path3"
         d="m 0,0 c 0,0 -0.108,-3.021 -0.284,-4.855 -0.177,-1.828 -4.234,-3.629 -5.743,-4.005 -1.51,-0.379 -10.952,1.931 -12.313,2.576 0,0 14.496,-8.231 18.526,-9.312 4.031,-1.077 7.616,-1.726 11.11,-5.639 3.494,-3.912 18.58,-14.249 18.58,-14.249 0,0 -9.93,7.488 -6.95,13.361 l 1.928,4.269 c 0,0 12.757,0.005 36.02,9.164 34.836,13.594 50.771,36.283 50.771,36.283 0,0 1.226,1.961 2.925,2.661 1.7,0.703 5.678,-0.518 6.722,-1.674 1.043,-1.159 2.931,-8.156 3,-9.658 0,0 0.365,13.914 -0.577,17.981 -0.938,4.064 -2.048,7.535 -0.236,12.456 1.815,4.921 2.849,22.665 2.849,22.665 0,0 -0.938,-11.854 -7.522,-11.975 l -3.818,-0.455 c 0,0 -9.037,18.966 -42.509,38.622 0,0 -8.968,4.458 -13.049,5.998 -16.365,6.99 -28.47,8.23 -28.47,8.23 0,0 -2.316,0.102 -3.83,1.209 -1.517,1.109 -2.329,4.624 -1.914,6.067 0.415,1.44 6.2,9.131 7.437,9.908 0,0 -13.155,-8.642 -16.092,-11.386 -2.933,-2.747 -5.27,-5.352 -10.415,-6.168 -5.146,-0.816 -20.32,-7.56 -20.32,-7.56 0,0 11.988,4.658 15.648,-0.876 l 2.225,-5.382 c 0,0 -12.311,-24.409 -10.142,-53.846 0,0 -0.635,-20.318 6.443,-44.41"
         style="fill:#ffffff;fill-opacity:1;fill-rule:evenodd;stroke:none"
         transform="matrix(1.3333333,0,0,-1.3333333,392.04107,433.3728)"
         clip-path="url(#clipPath4)" />
      <path
         id="path5"
         d="m 306.439,614.05 c 0,0 -7.564,-16.314 -8.915,-50.613 v 0 c -1.014,-25.798 6.424,-48.504 6.424,-48.504 v 0 c 2.254,-10.883 9.4,-8.713 9.4,-8.713 v 0 c 0,0 51.68,3.183 90.594,49.356 v 0 c 0,0 2.486,2.501 3.08,6.885 v 0 c -0.056,3.818 -2.609,6.907 -2.609,6.907 v 0 c -36.442,48.145 -88.256,52.846 -88.256,52.846 v 0 c 0,0 -0.492,0.118 -1.263,0.118 v 0 c -2.193,0 -6.632,-0.955 -8.455,-8.282"
         style="fill:url(#linearGradient5);stroke:none"
         transform="matrix(1.3333333,0,0,-1.3333333,0,1122.52)" />
      <path
         id="path6"
         d="M 0,0 -4.702,-24.889 H 0 c 4.424,0 8.113,1.289 11.061,3.871 3.043,2.581 4.564,6.315 4.564,11.202 0,2.395 -0.967,4.609 -2.904,6.637 C 10.878,-1.06 8.989,0 7.051,0 Z m -5.946,-82.552 h -35.678 l 18.115,96.797 h 38.58 c 8.113,0 14.429,-2.214 18.945,-6.639 4.056,-3.963 5.947,-8.849 5.669,-14.658 -0.37,-6.818 -3.136,-12.261 -8.296,-16.315 -2.487,-2.029 -6.777,-4.242 -12.861,-6.639 l -0.137,-0.276 c 4.699,-0.921 8.943,-3.366 12.718,-7.327 4.061,-4.425 6.086,-9.266 6.086,-14.523 0,-9.494 -4.193,-17.005 -12.583,-22.539 -7.838,-5.253 -18.02,-7.881 -30.558,-7.881 m -1.384,43.42 -5.394,-29.176 h 5.119 c 4.98,0 9.262,1.522 12.86,4.56 3.595,3.135 5.393,7.284 5.393,12.45 0,8.109 -3.55,12.166 -10.648,12.166 z"
         style="fill:#000000;fill-opacity:1;fill-rule:evenodd;stroke:none"
         transform="matrix(1.3333333,0,0,-1.3333333,646.21027,299.86507)"
         clip-path="url(#clipPath7)" />
      <path
         id="path8"
         d="m 0,0 c -3.686,0 -6.682,1.334 -8.985,4.008 -2.121,2.395 -3.182,5.164 -3.182,8.299 0,4.515 1.429,8.25 4.286,11.2 2.858,2.949 6.133,4.423 9.819,4.423 4.056,0 7.327,-1.382 9.819,-4.147 2.12,-2.397 3.181,-4.93 3.181,-7.605 0,-5.164 -1.615,-9.264 -4.841,-12.309 C 7.236,1.29 3.875,0 0,0"
         style="fill:#ed1c24;fill-opacity:1;fill-rule:evenodd;stroke:none"
         transform="matrix(1.3333333,0,0,-1.3333333,743.18427,310.7388)"
         clip-path="url(#clipPath9)" />
      <path
         id="path10"
         d="M 0,0 H 24.888 L 11.89,-69.142 h -24.889 z"
         style="fill:#000000;fill-opacity:1;fill-rule:evenodd;stroke:none"
         transform="matrix(1.3333333,0,0,-1.3333333,724.01493,317.7452)"
         clip-path="url(#clipPath11)" />
      <path
         id="path12"
         d="m 0,0 -2.213,-11.063 0.277,-0.276 c 7.928,8.662 16.959,12.995 27.104,12.995 3.041,0 5.762,-1.057 8.16,-3.178 2.858,-2.491 4.283,-5.761 4.283,-9.817 3.502,3.778 7.789,6.869 12.862,9.263 5.068,2.396 9.724,3.641 13.965,3.732 5.535,0.094 9.634,-1.149 12.308,-3.732 2.67,-2.581 3.918,-6.224 3.731,-10.922 -0.092,-2.857 -0.598,-6.777 -1.518,-11.755 l -8.16,-44.389 H 45.906 l 8.162,43.556 c 0.276,1.478 0.412,2.629 0.412,3.461 0,4.424 -1.658,6.637 -4.978,6.637 -3.225,0 -6.127,-2.031 -8.709,-6.084 -2.488,-3.964 -4.334,-9.035 -5.533,-15.212 L 29.039,-69.142 H 4.146 l 8.161,43.556 c 0.277,1.478 0.418,2.629 0.418,3.461 0,4.424 -1.664,6.637 -4.981,6.637 -3.226,0 -6.127,-2.031 -8.711,-6.084 -2.488,-3.964 -4.334,-9.035 -5.531,-15.212 l -6.226,-32.358 H -37.611 L -24.616,0 Z"
         style="fill:#000000;fill-opacity:1;fill-rule:evenodd;stroke:none"
         transform="matrix(1.3333333,0,0,-1.3333333,810.48173,317.7452)"
         clip-path="url(#clipPath13)" />
      <path
         id="path14"
         d="m 0,0 c -7.193,-0.276 -12.031,-6.176 -14.52,-17.699 13.737,-0.554 20.881,3.04 21.43,10.784 0.188,2.029 -0.365,3.689 -1.656,4.978 C 3.963,-0.555 2.211,0.092 0,0 m 13.689,-38.44 5.252,-11.064 c -13.089,-7.377 -25.396,-11.063 -36.918,-11.063 -8.296,0 -14.707,3.411 -19.222,10.234 -3.504,5.348 -5.158,11.062 -4.975,17.145 0.459,14.751 5.713,26.319 15.76,34.71 8.297,6.916 17.748,10.371 28.348,10.371 7.373,0 13.185,-1.384 17.425,-4.149 4.883,-3.135 7.327,-7.837 7.327,-14.104 0,-7.1 -4.518,-12.862 -13.549,-17.285 -8.389,-4.056 -17.979,-5.949 -28.766,-5.672 -0.092,-1.106 -0.139,-2.029 -0.139,-2.765 0,-8.11 3.918,-12.168 11.758,-12.168 3.871,0 9.77,1.937 17.699,5.81"
         style="fill:#000000;fill-opacity:1;fill-rule:evenodd;stroke:none"
         transform="matrix(1.3333333,0,0,-1.3333333,983.05467,331.38973)"
         clip-path="url(#clipPath15)" />
      <path
         id="path16"
         d="M 0,0 18.943,101.634 H 43.834 L 32.357,40.932 32.635,40.655 c 5.992,8.204 14.238,18.16 24.75,29.867 L 75.223,63.608 53.656,39.411 69.275,5.809 44.523,-1.379 C 38.807,14.105 34.615,27.193 31.943,37.889 H 31.664 L 24.887,0 Z"
         style="fill:#000000;fill-opacity:1;fill-rule:evenodd;stroke:none"
         transform="matrix(1.3333333,0,0,-1.3333333,1019.9271,409.934)"
         clip-path="url(#clipPath17)" />
      <path
         id="path18"
         d="m 0,0 -7.465,-11.062 c -3.322,2.029 -6.363,3.041 -9.131,3.041 -4.238,0 -6.361,-1.934 -6.361,-5.805 0,-2.216 0.926,-4.611 2.766,-7.192 1.939,-2.49 3.875,-4.978 5.812,-7.465 3.592,-5.074 5.395,-7.609 5.395,-7.609 1.931,-3.318 2.9,-6.497 2.9,-9.541 0,-5.622 -2.35,-10.37 -7.055,-14.239 -5.343,-4.334 -12.859,-6.502 -22.537,-6.502 -10.23,0 -18.162,1.659 -23.783,4.978 l 5.807,14.382 c 5.256,-3.227 9.863,-4.84 13.826,-4.84 5.533,0 8.299,2.166 8.299,6.5 0,2.029 -0.786,4.239 -2.356,6.635 -0.732,1.107 -2.715,3.595 -5.943,7.47 -5.162,6.173 -7.742,11.799 -7.742,16.868 0,5.441 2.259,10.096 6.775,13.969 4.977,4.33 11.479,6.495 19.5,6.495 C -12.814,6.083 -5.717,4.059 0,0"
         style="fill:#000000;fill-opacity:1;fill-rule:evenodd;stroke:none"
         transform="matrix(1.3333333,0,0,-1.3333333,1195.0807,323.6476)"
         clip-path="url(#clipPath19)" />
      <path
         id="path20"
         d="M 0,0 C 1.496,0 2.522,0.212 3.08,0.638 3.637,1.063 3.916,1.524 3.916,2.024 3.916,2.347 3.864,2.625 3.762,2.86 3.659,3.095 3.49,3.314 3.256,3.52 3.021,3.725 2.698,3.938 2.288,4.158 1.877,4.378 1.349,4.635 0.704,4.928 -0.03,5.25 -0.719,5.595 -1.364,5.962 c -0.646,0.366 -1.21,0.807 -1.694,1.32 -0.484,0.513 -0.865,1.1 -1.144,1.76 -0.279,0.66 -0.418,1.444 -0.418,2.354 0,2.375 0.872,4.252 2.618,5.632 1.745,1.378 4.29,2.068 7.634,2.068 1.584,0 2.992,-0.176 4.224,-0.528 1.232,-0.352 2.229,-0.734 2.992,-1.144 L 10.604,12.54 c -0.616,0.322 -1.408,0.63 -2.376,0.924 -0.968,0.293 -1.921,0.44 -2.86,0.44 -0.411,0 -0.814,-0.022 -1.21,-0.066 C 3.762,13.794 3.395,13.698 3.058,13.552 2.72,13.405 2.449,13.2 2.244,12.936 2.039,12.672 1.936,12.32 1.936,11.88 1.936,11.293 2.163,10.853 2.618,10.56 3.072,10.267 3.71,9.914 4.532,9.504 5.676,8.946 6.629,8.433 7.392,7.964 8.154,7.494 8.763,6.996 9.218,6.468 9.672,5.939 10.002,5.338 10.208,4.664 10.413,3.989 10.516,3.197 10.516,2.288 10.516,1.349 10.318,0.425 9.922,-0.484 9.526,-1.394 8.902,-2.2 8.052,-2.904 7.201,-3.608 6.116,-4.18 4.796,-4.62 3.476,-5.061 1.892,-5.28 0.044,-5.28 c -1.144,0 -2.178,0.074 -3.102,0.219 -0.924,0.148 -1.738,0.331 -2.442,0.551 -0.704,0.22 -1.298,0.447 -1.782,0.682 -0.484,0.234 -0.858,0.425 -1.122,0.572 L -6.16,1.76 C -5.662,1.467 -4.884,1.1 -3.828,0.66 -2.772,0.22 -1.496,0 0,0"
         style="fill:#707070;fill-opacity:1;fill-rule:nonzero;stroke:none"
         transform="matrix(1.3333333,0,0,-1.3333333,601.0248,470.5356)"
         clip-path="url(#clipPath21)" />
      <path
         id="path22"
         d="M 0,0 6.82,1.056 5.148,-5.765 h 7.304 l -1.32,-5.367 h -7.26 l -1.936,-8.097 c -0.176,-0.674 -0.286,-1.305 -0.33,-1.891 -0.044,-0.587 0.029,-1.093 0.22,-1.519 0.191,-0.424 0.52,-0.755 0.99,-0.989 0.469,-0.235 1.114,-0.352 1.936,-0.352 0.704,0 1.386,0.066 2.046,0.198 0.66,0.132 1.327,0.314 2.002,0.55 l 0.484,-5.016 c -0.88,-0.323 -1.834,-0.602 -2.86,-0.836 -1.027,-0.234 -2.244,-0.353 -3.652,-0.353 -2.024,0 -3.594,0.302 -4.708,0.903 -1.115,0.6 -1.907,1.423 -2.376,2.464 -0.47,1.041 -0.675,2.236 -0.616,3.586 0.058,1.348 0.264,2.772 0.616,4.268 z"
         style="fill:#707070;fill-opacity:1;fill-rule:nonzero;stroke:none"
         transform="matrix(1.3333333,0,0,-1.3333333,633.1732,438.21013)"
         clip-path="url(#clipPath23)" />
      <path
         id="path24"
         d="m 0,0 c -0.909,0 -1.731,0.271 -2.464,0.814 -0.733,0.542 -1.1,1.371 -1.1,2.486 0,0.616 0.125,1.195 0.374,1.738 0.249,0.542 0.579,1.012 0.99,1.408 0.41,0.396 0.887,0.711 1.43,0.946 0.542,0.235 1.122,0.352 1.738,0.352 0.909,0 1.731,-0.271 2.464,-0.814 0.733,-0.543 1.1,-1.371 1.1,-2.486 C 4.532,3.828 4.407,3.248 4.158,2.706 3.909,2.163 3.579,1.694 3.168,1.298 2.757,0.902 2.281,0.587 1.738,0.352 1.195,0.117 0.616,0 0,0 M -3.168,-25.96 H -9.68 l 5.5,23.144 h 6.556 z"
         style="fill:#707070;fill-opacity:1;fill-rule:nonzero;stroke:none"
         transform="matrix(1.3333333,0,0,-1.3333333,667.5508,442.14107)"
         clip-path="url(#clipPath25)" />
      <path
         id="path26"
         d="m 0,0 c 0,1.994 0.323,3.872 0.968,5.632 0.645,1.76 1.569,3.3 2.772,4.62 1.202,1.319 2.662,2.36 4.378,3.124 1.716,0.763 3.63,1.144 5.742,1.144 1.32,0 2.5,-0.125 3.542,-0.374 1.041,-0.25 1.987,-0.58 2.838,-0.99 L 17.996,8.052 C 17.409,8.286 16.8,8.499 16.17,8.689 15.539,8.88 14.769,8.976 13.86,8.976 11.66,8.976 9.929,8.234 8.668,6.754 7.407,5.272 6.776,3.256 6.776,0.704 c 0,-1.496 0.323,-2.706 0.968,-3.63 0.645,-0.925 1.833,-1.387 3.564,-1.387 0.851,0 1.672,0.088 2.464,0.265 0.792,0.176 1.496,0.396 2.112,0.659 l 0.484,-5.235 c -0.822,-0.323 -1.723,-0.609 -2.706,-0.858 -0.983,-0.249 -2.178,-0.374 -3.586,-0.374 -1.819,0 -3.359,0.264 -4.62,0.792 C 4.194,-8.536 3.153,-7.825 2.332,-6.931 1.511,-6.036 0.917,-4.987 0.55,-3.784 0.183,-2.582 0,-1.32 0,0"
         style="fill:#707070;fill-opacity:1;fill-rule:nonzero;stroke:none"
         transform="matrix(1.3333333,0,0,-1.3333333,678.46227,464.434)"
         clip-path="url(#clipPath27)" />
      <path
         id="path28"
         d="m 0,0 c 1.76,1.408 3.417,2.845 4.972,4.312 1.555,1.466 2.889,2.816 4.004,4.047 h 7.392 C 14.725,6.541 13.017,4.759 11.242,3.014 9.467,1.269 7.436,-0.587 5.148,-2.552 c 0.616,-0.763 1.239,-1.643 1.87,-2.64 0.63,-0.997 1.232,-2.039 1.804,-3.124 0.572,-1.085 1.1,-2.186 1.584,-3.3 0.484,-1.115 0.887,-2.171 1.21,-3.168 H 4.312 c -0.264,0.763 -0.594,1.598 -0.99,2.508 -0.396,0.909 -0.836,1.811 -1.32,2.706 -0.484,0.894 -0.99,1.766 -1.518,2.618 -0.528,0.85 -1.056,1.613 -1.584,2.288 l -2.464,-10.12 h -6.512 l 7.92,33.088 6.82,1.055 z"
         style="fill:#707070;fill-opacity:1;fill-rule:nonzero;stroke:none"
         transform="matrix(1.3333333,0,0,-1.3333333,723.75267,457.04213)"
         clip-path="url(#clipPath29)" />
      <path
         id="path30"
         d="M 0,0 6.82,1.056 5.148,-5.765 h 7.304 l -1.32,-5.367 h -7.26 l -1.936,-8.097 c -0.176,-0.674 -0.286,-1.305 -0.33,-1.891 -0.044,-0.587 0.029,-1.093 0.22,-1.519 0.191,-0.424 0.52,-0.755 0.99,-0.989 0.469,-0.235 1.114,-0.352 1.936,-0.352 0.704,0 1.386,0.066 2.046,0.198 0.66,0.132 1.327,0.314 2.002,0.55 l 0.484,-5.016 c -0.88,-0.323 -1.834,-0.602 -2.86,-0.836 -1.027,-0.234 -2.244,-0.353 -3.652,-0.353 -2.024,0 -3.594,0.302 -4.708,0.903 -1.115,0.6 -1.907,1.423 -2.376,2.464 -0.47,1.041 -0.675,2.236 -0.616,3.586 0.058,1.348 0.264,2.772 0.616,4.268 z"
         style="fill:#707070;fill-opacity:1;fill-rule:nonzero;stroke:none"
         transform="matrix(1.3333333,0,0,-1.3333333,776.61,438.21013)"
         clip-path="url(#clipPath31)" />
      <path
         id="path32"
         d="m 0,0 c -0.969,0 -1.819,-0.279 -2.553,-0.836 -0.732,-0.558 -1.349,-1.262 -1.847,-2.112 -0.499,-0.851 -0.873,-1.781 -1.121,-2.794 -0.25,-1.012 -0.375,-1.973 -0.375,-2.882 0,-1.496 0.234,-2.647 0.705,-3.454 0.468,-0.807 1.319,-1.21 2.55,-1.21 0.969,0 1.819,0.278 2.553,0.836 0.733,0.557 1.349,1.261 1.848,2.112 0.498,0.851 0.873,1.782 1.122,2.794 0.249,1.012 0.374,1.973 0.374,2.882 0,1.496 -0.235,2.647 -0.704,3.454 C 2.082,-0.403 1.232,0 0,0 m -3.256,-18.832 c -1.555,0 -2.904,0.235 -4.049,0.704 -1.143,0.469 -2.09,1.129 -2.838,1.981 -0.748,0.849 -1.312,1.854 -1.693,3.013 -0.382,1.158 -0.572,2.443 -0.572,3.85 0,1.761 0.286,3.52 0.857,5.28 0.572,1.76 1.416,3.344 2.531,4.752 1.114,1.408 2.479,2.559 4.092,3.454 1.613,0.895 3.461,1.342 5.543,1.342 1.526,0 2.867,-0.235 4.028,-0.704 C 5.801,4.371 6.754,3.711 7.502,2.86 8.25,2.009 8.814,1.005 9.195,-0.154 c 0.382,-1.159 0.573,-2.442 0.573,-3.85 0,-1.76 -0.28,-3.519 -0.836,-5.28 -0.557,-1.76 -1.379,-3.344 -2.464,-4.752 -1.085,-1.407 -2.443,-2.56 -4.07,-3.454 -1.628,-0.894 -3.513,-1.342 -5.654,-1.342"
         style="fill:#707070;fill-opacity:1;fill-rule:nonzero;stroke:none"
         transform="matrix(1.3333333,0,0,-1.3333333,815.5052,452.46667)"
         clip-path="url(#clipPath33)" />
      <path
         id="path34"
         d="m 0,0 c 0.498,-0.117 1.114,-0.176 1.848,-0.176 1.144,0 2.184,0.213 3.124,0.639 0.938,0.425 1.738,1.018 2.398,1.781 0.659,0.763 1.173,1.68 1.54,2.75 0.366,1.07 0.55,2.251 0.55,3.542 0,1.261 -0.279,2.332 -0.836,3.212 -0.558,0.881 -1.525,1.32 -2.904,1.32 -0.94,0 -1.82,-0.088 -2.64,-0.263 z m 15.972,9.021 c 0,-2.142 -0.352,-4.1 -1.056,-5.875 C 14.212,1.371 13.236,-0.161 11.989,-1.451 10.742,-2.742 9.247,-3.747 7.502,-4.466 5.756,-5.184 3.856,-5.544 1.804,-5.544 c -0.997,0 -1.995,0.089 -2.992,0.265 l -1.98,-7.964 h -6.513 l 7.305,30.447 c 1.173,0.353 2.515,0.667 4.025,0.946 1.511,0.279 3.147,0.418 4.907,0.418 1.642,0 3.057,-0.249 4.246,-0.748 1.187,-0.499 2.163,-1.18 2.926,-2.046 0.762,-0.865 1.327,-1.878 1.694,-3.036 0.366,-1.159 0.55,-2.397 0.55,-3.717"
         style="fill:#707070;fill-opacity:1;fill-rule:nonzero;stroke:none"
         transform="matrix(1.3333333,0,0,-1.3333333,866.1328,469.94973)"
         clip-path="url(#clipPath35)" />
      <path
         id="path36"
         d="m 0,0 c -1.496,0 -2.81,-0.536 -3.938,-1.606 -1.129,-1.072 -1.87,-2.487 -2.222,-4.247 1.818,0.059 3.285,0.213 4.4,0.462 1.114,0.249 1.98,0.55 2.596,0.903 0.616,0.351 1.026,0.732 1.232,1.143 0.204,0.411 0.308,0.822 0.308,1.233 C 2.376,-0.704 1.584,0 0,0 m -12.804,-9.504 c 0,1.876 0.33,3.695 0.99,5.455 0.66,1.761 1.59,3.322 2.793,4.687 1.204,1.364 2.663,2.464 4.378,3.3 1.717,0.835 3.616,1.253 5.699,1.253 1.026,0 1.98,-0.146 2.86,-0.439 0.88,-0.294 1.649,-0.72 2.31,-1.276 0.66,-0.558 1.172,-1.24 1.54,-2.046 0.367,-0.808 0.549,-1.724 0.549,-2.75 0,-1.644 -0.366,-3.036 -1.099,-4.18 -0.734,-1.145 -1.753,-2.076 -3.058,-2.794 -1.305,-0.72 -2.853,-1.24 -4.642,-1.562 -1.789,-0.324 -3.74,-0.485 -5.852,-0.485 0.205,-1.231 0.652,-2.104 1.342,-2.617 0.688,-0.514 1.782,-0.771 3.278,-0.771 0.939,0 1.892,0.082 2.86,0.243 0.968,0.161 1.877,0.403 2.728,0.725 l 0.483,-5.147 c -0.821,-0.323 -1.869,-0.616 -3.145,-0.88 -1.276,-0.265 -2.662,-0.397 -4.158,-0.397 -1.82,0 -3.352,0.258 -4.598,0.771 -1.247,0.513 -2.26,1.21 -3.036,2.09 -0.777,0.88 -1.342,1.906 -1.694,3.08 -0.352,1.173 -0.528,2.42 -0.528,3.74"
         style="fill:#707070;fill-opacity:1;fill-rule:nonzero;stroke:none"
         transform="matrix(1.3333333,0,0,-1.3333333,914.06253,451.99653)"
         clip-path="url(#clipPath37)" />
      <path
         id="path38"
         d="M 0,0 C -0.587,0.146 -1.166,0.286 -1.737,0.418 -2.31,0.55 -3.153,0.616 -4.268,0.616 -4.679,0.616 -5.133,0.579 -5.632,0.506 -6.131,0.433 -6.541,0.353 -6.863,0.265 l -4.269,-17.777 h -6.556 L -12.407,4.4 c 1.261,0.411 2.676,0.799 4.246,1.166 1.568,0.367 3.336,0.55 5.302,0.55 0.732,0 1.546,-0.066 2.441,-0.198 C 0.477,5.786 1.262,5.573 1.937,5.28 Z"
         style="fill:#707070;fill-opacity:1;fill-rule:nonzero;stroke:none"
         transform="matrix(1.3333333,0,0,-1.3333333,955.36333,453.40547)"
         clip-path="url(#clipPath39)" />
      <path
         id="path40"
         d="m 0,0 c 1.32,0 2.471,-0.139 3.454,-0.418 0.983,-0.278 1.723,-0.535 2.222,-0.77 l -2.2,-5.148 c -0.528,0.265 -1.137,0.462 -1.827,0.595 -0.689,0.132 -1.327,0.197 -1.914,0.197 -1.613,0 -2.808,-0.411 -3.586,-1.231 -0.777,-0.822 -1.312,-1.849 -1.605,-3.08 L -5.72,-11 h 7.743 l -1.319,-5.367 h -7.7 L -9.68,-27.588 c -0.998,-4.194 -2.084,-7.458 -3.257,-9.79 -1.172,-2.332 -2.463,-4.025 -3.872,-5.082 l -5.851,0.836 c 0.763,0.704 1.467,1.57 2.112,2.597 0.645,1.027 1.224,2.111 1.737,3.256 0.514,1.143 0.954,2.309 1.321,3.498 0.366,1.187 0.667,2.294 0.902,3.322 l 4.576,19.183 c 0.733,3.11 2.053,5.515 3.96,7.216 C -6.146,-0.851 -3.462,0 0,0"
         style="fill:#707070;fill-opacity:1;fill-rule:nonzero;stroke:none"
         transform="matrix(1.3333333,0,0,-1.3333333,985.2252,431.2296)"
         clip-path="url(#clipPath41)" />
      <path
         id="path42"
         d="m 0,0 c -1.496,0 -2.81,-0.536 -3.938,-1.606 -1.129,-1.072 -1.87,-2.487 -2.222,-4.247 1.818,0.059 3.285,0.213 4.4,0.462 1.114,0.249 1.98,0.55 2.596,0.903 0.616,0.351 1.026,0.732 1.232,1.143 0.204,0.411 0.308,0.822 0.308,1.233 C 2.376,-0.704 1.584,0 0,0 m -12.804,-9.504 c 0,1.876 0.33,3.695 0.99,5.455 0.66,1.761 1.59,3.322 2.793,4.687 1.204,1.364 2.663,2.464 4.378,3.3 1.717,0.835 3.616,1.253 5.699,1.253 1.026,0 1.98,-0.146 2.86,-0.439 0.88,-0.294 1.649,-0.72 2.31,-1.276 0.66,-0.558 1.172,-1.24 1.54,-2.046 0.367,-0.808 0.549,-1.724 0.549,-2.75 0,-1.644 -0.366,-3.036 -1.099,-4.18 -0.734,-1.145 -1.753,-2.076 -3.058,-2.794 -1.305,-0.72 -2.853,-1.24 -4.642,-1.562 -1.789,-0.324 -3.74,-0.485 -5.852,-0.485 0.205,-1.231 0.652,-2.104 1.342,-2.617 0.688,-0.514 1.782,-0.771 3.278,-0.771 0.939,0 1.892,0.082 2.86,0.243 0.968,0.161 1.877,0.403 2.728,0.725 l 0.483,-5.147 c -0.821,-0.323 -1.869,-0.616 -3.145,-0.88 -1.276,-0.265 -2.662,-0.397 -4.158,-0.397 -1.82,0 -3.352,0.258 -4.598,0.771 -1.247,0.513 -2.26,1.21 -3.036,2.09 -0.777,0.88 -1.342,1.906 -1.694,3.08 -0.352,1.173 -0.528,2.42 -0.528,3.74"
         style="fill:#707070;fill-opacity:1;fill-rule:nonzero;stroke:none"
         transform="matrix(1.3333333,0,0,-1.3333333,1011.2148,451.99653)"
         clip-path="url(#clipPath43)" />
      <path
         id="path44"
         d="m 0,0 c 0,1.994 0.322,3.872 0.968,5.632 0.644,1.76 1.568,3.3 2.771,4.62 1.203,1.319 2.662,2.36 4.378,3.124 1.717,0.763 3.631,1.144 5.742,1.144 1.321,0 2.501,-0.125 3.542,-0.374 1.041,-0.25 1.988,-0.58 2.838,-0.99 L 17.996,8.052 C 17.408,8.286 16.8,8.499 16.17,8.689 15.538,8.88 14.769,8.976 13.859,8.976 11.659,8.976 9.929,8.234 8.668,6.754 7.406,5.272 6.775,3.256 6.775,0.704 c 0,-1.496 0.323,-2.706 0.968,-3.63 0.646,-0.925 1.833,-1.387 3.565,-1.387 0.85,0 1.671,0.088 2.463,0.265 0.792,0.176 1.497,0.396 2.113,0.659 l 0.483,-5.235 c -0.821,-0.323 -1.722,-0.609 -2.706,-0.858 -0.982,-0.249 -2.178,-0.374 -3.586,-0.374 -1.818,0 -3.358,0.264 -4.619,0.792 C 4.194,-8.536 3.152,-7.825 2.332,-6.931 1.51,-6.036 0.916,-4.987 0.55,-3.784 0.183,-2.582 0,-1.32 0,0"
         style="fill:#707070;fill-opacity:1;fill-rule:nonzero;stroke:none"
         transform="matrix(1.3333333,0,0,-1.3333333,1030.6927,464.434)"
         clip-path="url(#clipPath45)" />
      <path
         id="path46"
         d="M 0,0 6.82,1.056 5.147,-5.765 h 7.305 l -1.32,-5.367 H 3.872 L 1.936,-19.229 C 1.76,-19.903 1.65,-20.534 1.605,-21.12 c -0.043,-0.587 0.03,-1.093 0.221,-1.519 0.191,-0.424 0.521,-0.755 0.99,-0.989 0.469,-0.235 1.115,-0.352 1.936,-0.352 0.704,0 1.386,0.066 2.046,0.198 0.66,0.132 1.327,0.314 2.002,0.55 l 0.484,-5.016 c -0.88,-0.323 -1.834,-0.602 -2.86,-0.836 -1.028,-0.234 -2.244,-0.353 -3.653,-0.353 -2.023,0 -3.592,0.302 -4.708,0.903 -1.114,0.6 -1.906,1.423 -2.376,2.464 -0.468,1.041 -0.674,2.236 -0.615,3.586 0.058,1.348 0.264,2.772 0.615,4.268 z"
         style="fill:#707070;fill-opacity:1;fill-rule:nonzero;stroke:none"
         transform="matrix(1.3333333,0,0,-1.3333333,1070.9375,438.21013)"
         clip-path="url(#clipPath47)" />
      <path
         id="path48"
         d="m 0,0 c -0.909,0 -1.73,0.271 -2.464,0.814 -0.733,0.542 -1.099,1.371 -1.099,2.486 0,0.616 0.124,1.195 0.374,1.738 0.249,0.542 0.578,1.012 0.989,1.408 0.411,0.396 0.887,0.711 1.43,0.946 0.542,0.235 1.123,0.352 1.738,0.352 0.909,0 1.73,-0.271 2.465,-0.814 C 4.165,6.387 4.532,5.559 4.532,4.444 4.532,3.828 4.407,3.248 4.158,2.706 3.908,2.163 3.579,1.694 3.168,1.298 2.757,0.902 2.28,0.587 1.738,0.352 1.195,0.117 0.616,0 0,0 M -3.168,-25.96 H -9.68 l 5.5,23.144 h 6.556 z"
         style="fill:#707070;fill-opacity:1;fill-rule:nonzero;stroke:none"
         transform="matrix(1.3333333,0,0,-1.3333333,1105.3151,442.14107)"
         clip-path="url(#clipPath49)" />
      <path
         id="path50"
         d="m 0,0 c -0.968,0 -1.818,-0.279 -2.552,-0.836 -0.733,-0.558 -1.349,-1.262 -1.847,-2.112 -0.499,-0.851 -0.873,-1.781 -1.122,-2.794 -0.25,-1.012 -0.375,-1.973 -0.375,-2.882 0,-1.496 0.235,-2.647 0.705,-3.454 0.468,-0.807 1.319,-1.21 2.551,-1.21 0.968,0 1.819,0.278 2.552,0.836 0.734,0.557 1.35,1.261 1.849,2.112 0.498,0.851 0.872,1.782 1.122,2.794 0.248,1.012 0.374,1.973 0.374,2.882 0,1.496 -0.236,2.647 -0.704,3.454 C 2.083,-0.403 1.232,0 0,0 m -3.256,-18.832 c -1.555,0 -2.903,0.235 -4.048,0.704 -1.143,0.469 -2.09,1.129 -2.838,1.981 -0.748,0.849 -1.313,1.854 -1.694,3.013 -0.381,1.158 -0.571,2.443 -0.571,3.85 0,1.761 0.285,3.52 0.857,5.28 0.572,1.76 1.415,3.344 2.53,4.752 1.115,1.408 2.479,2.559 4.092,3.454 1.614,0.895 3.461,1.342 5.544,1.342 1.526,0 2.867,-0.235 4.027,-0.704 C 5.801,4.371 6.754,3.711 7.502,2.86 8.25,2.009 8.814,1.005 9.196,-0.154 c 0.381,-1.159 0.573,-2.442 0.573,-3.85 0,-1.76 -0.28,-3.519 -0.836,-5.28 -0.558,-1.76 -1.379,-3.344 -2.464,-4.752 -1.086,-1.407 -2.443,-2.56 -4.071,-3.454 -1.627,-0.894 -3.512,-1.342 -5.654,-1.342"
         style="fill:#707070;fill-opacity:1;fill-rule:nonzero;stroke:none"
         transform="matrix(1.3333333,0,0,-1.3333333,1132.7708,452.46667)"
         clip-path="url(#clipPath51)" />
      <path
         id="path52"
         d="m 0,0 c 0.498,0.146 1.048,0.315 1.649,0.506 0.602,0.19 1.277,0.366 2.025,0.528 0.748,0.161 1.584,0.293 2.508,0.396 0.923,0.102 1.972,0.154 3.146,0.154 3.461,0 5.837,-0.997 7.128,-2.992 1.29,-1.995 1.51,-4.723 0.659,-8.184 L 14.124,-22.088 H 7.567 l 2.905,12.233 c 0.175,0.761 0.314,1.502 0.418,2.221 0.102,0.719 0.094,1.349 -0.022,1.892 -0.118,0.543 -0.389,0.982 -0.814,1.32 C 9.628,-4.085 8.976,-3.916 8.096,-3.916 7.244,-3.916 6.38,-4.004 5.5,-4.18 L 1.231,-22.088 h -6.555 z"
         style="fill:#707070;fill-opacity:1;fill-rule:nonzero;stroke:none"
         transform="matrix(1.3333333,0,0,-1.3333333,1160.6967,447.30387)"
         clip-path="url(#clipPath53)" />
    </g>
  </g>
</svg>
